<svg xmlns="http://www.w3.org/2000/svg" xmlns:xlink="http://www.w3.org/1999/xlink" viewBox="0 0 100.6 42.51"><defs><style>.cls-1{fill:none;}.cls-2{clip-path:url(#clip-path);}.cls-3{fill:#0e9b42;}.cls-4{fill:#9b9795;}.cls-5{fill:#d8b13c;}.cls-6{fill:#1d1d1b;}.cls-7{font-size:13.36px;fill:#706f6f;font-family:JannaLT-Regular, Janna LT;}</style><clipPath id="clip-path" transform="translate(-0.36 -0.03)"><polyline class="cls-1" points="100.91 43.38 100.91 0 56.84 0 56.84 43.38"/></clipPath></defs><g id="Layer_2" data-name="Layer 2"><g id="Layer_1-2" data-name="Layer 1"><g id="Layer_2-2" data-name="Layer 2"><g id="Layer_1-2-2" data-name="Layer 1-2"><g class="cls-2"><path class="cls-3" d="M87,36.34h9.86A4.11,4.11,0,0,0,101,32.23V9.41A4.11,4.11,0,0,0,96.84,5.3h-2a.64.64,0,0,0-.72.57.65.65,0,0,0,.57.72h2.14a2.83,2.83,0,0,1,2.82,2.82h0V31.57H58.14V9.41A2.82,2.82,0,0,1,61,6.59h1.9a.65.65,0,0,0,0-1.29H61a4.12,4.12,0,0,0-4.11,4.11V32.23A4.12,4.12,0,0,0,61,36.34h9.85m1.29,0h9.44a.65.65,0,0,0,0-1.29H61a2.85,2.85,0,0,1-2.75-2.18H99.53a2.84,2.84,0,0,1-2.74,2.18H84.31a.65.65,0,1,0,0,1.29h1.33" transform="translate(-0.36 -0.03)"/><path class="cls-4" d="M67.66,6.53l2.51,1.21V15.4a1.57,1.57,0,0,0,1.33,1.53l.69.1a46.55,46.55,0,0,0,6.78.49A46.65,46.65,0,0,0,85.75,17l.7-.1a1.56,1.56,0,0,0,1.31-1.53V7.69L89.24,7V18.89a2.51,2.51,0,0,0-1.84,2.38v1.61a1.19,1.19,0,0,0,1.18,1.17h2.58a1.17,1.17,0,0,0,1.18-1.17V21.27a2.5,2.5,0,0,0-1.83-2.38V6a.65.65,0,0,0-.37-.59L79.39.14a1.12,1.12,0,0,0-1,0L67.66,5.36a.65.65,0,0,0,0,1.17ZM91,21.27v1.48H88.65V21.27a1.19,1.19,0,0,1,2.37,0ZM78.9,1.35,88.37,6l-9.47,4.6L76.39,9.31a.65.65,0,0,0-.56,1.17h0l2.58,1.24a1.15,1.15,0,0,0,1,0l7.06-3.35v7a.24.24,0,0,1-.22.24l-.69.11a45.55,45.55,0,0,1-13.19,0l-.7-.11a.24.24,0,0,1-.21-.24v-7l1.85.89A.63.63,0,0,0,74.15,9a.65.65,0,0,0-.29-.87L69.4,6Z" transform="translate(-0.36 -0.03)"/></g><path class="cls-5" d="M93.76,13.86h.67a.64.64,0,0,1,.64.63h0V27.62a.64.64,0,0,1-.64.63H80.15a.65.65,0,0,0-.72.58.64.64,0,0,0,.57.72H94.43a1.93,1.93,0,0,0,1.93-1.93V14.49a1.94,1.94,0,0,0-1.93-1.93h-.67a.66.66,0,0,0-.57.72A.65.65,0,0,0,93.76,13.86Z" transform="translate(-0.36 -0.03)"/><path class="cls-5" d="M63.45,13.86h4.49a.65.65,0,0,0,.15-1.3H63.45a1.94,1.94,0,0,0-1.92,1.93V27.62a1.93,1.93,0,0,0,1.92,1.93H72a.65.65,0,0,0,.14-1.3h-8.7a.63.63,0,0,1-.62-.63h0V14.49a.62.62,0,0,1,.61-.63Z" transform="translate(-0.36 -0.03)"/><path class="cls-3" d="M84,19a1.84,1.84,0,0,0-2.58.23h0l-5.47,6.53-1.87-1.92a1.78,1.78,0,0,0-1.31-.55,1.75,1.75,0,0,0-1.3.52,1.8,1.8,0,0,0-.54,1.33,1.86,1.86,0,0,0,.52,1.3l3.29,3.35a1.87,1.87,0,0,0,1.32.56h.06a1.85,1.85,0,0,0,1.34-.66l6.77-8.1A1.85,1.85,0,0,0,84,19Zm-.55,1.93L76.66,29a.82.82,0,0,1-.56.3.81.81,0,0,1-.61-.24L72.2,25.7a.86.86,0,0,1-.29-.59.84.84,0,0,1,.84-.84h0a.86.86,0,0,1,.57.25l2.27,2.33A.55.55,0,0,0,76,27a.56.56,0,0,0,.38-.19l5.86-7a.81.81,0,0,1,1.24,1Z" transform="translate(-0.36 -0.03)"/><path class="cls-6" d="M5.92,17.44v1.28H.78V17.44H2.57a2.47,2.47,0,0,1-.74-.86,2.41,2.41,0,0,1-.27-1.09,2.33,2.33,0,0,1,.69-1.7,2.89,2.89,0,0,1,2.12-.69l.64,0a3.16,3.16,0,0,1,.64.12c0,.23-.07.44-.11.61s-.07.37-.12.61a6,6,0,0,0-.92-.06,2.24,2.24,0,0,0-1.16.29,1,1,0,0,0-.49,1,1.46,1.46,0,0,0,.15.64,1.86,1.86,0,0,0,.44.58,2.24,2.24,0,0,0,.75.41,3.05,3.05,0,0,0,1,.16Z" transform="translate(-0.36 -0.03)"/><path class="cls-6" d="M8.39,6H9.81V17.3h1.38c.27,0,.41.11.41.32v.68a.37.37,0,0,1-.41.42H8.39Z" transform="translate(-0.36 -0.03)"/><path class="cls-6" d="M10.93,18.72c-.27,0-.41-.11-.41-.32v-.68a.37.37,0,0,1,.41-.42h2.41c.27,0,.4.11.4.33v.67c0,.28-.13.42-.4.42Z" transform="translate(-0.36 -0.03)"/><path class="cls-6" d="M13.09,18.72c-.27,0-.41-.11-.41-.32v-.68a.37.37,0,0,1,.41-.42H15.5c.27,0,.4.11.4.33v.67c0,.28-.13.42-.4.42Z" transform="translate(-0.36 -0.03)"/><path class="cls-6" d="M15.25,18.72c-.27,0-.41-.11-.41-.32v-.68a.37.37,0,0,1,.41-.42h2.41c.27,0,.4.11.4.33v.67c0,.28-.13.42-.4.42Z" transform="translate(-0.36 -0.03)"/><path class="cls-6" d="M17.41,18.72c-.27,0-.41-.11-.41-.32v-.68a.37.37,0,0,1,.41-.42h2.41c.27,0,.41.11.41.33v.67a.37.37,0,0,1-.41.42Z" transform="translate(-0.36 -0.03)"/><path class="cls-6" d="M19.58,18.72c-.27,0-.41-.11-.41-.32v-.68a.37.37,0,0,1,.41-.42h2.91a2.75,2.75,0,0,1-.65-.95A3.21,3.21,0,0,1,21.57,15a3.5,3.5,0,0,1,.28-1.37,3.75,3.75,0,0,1,.77-1.19,3.84,3.84,0,0,1,1.2-.83,3.63,3.63,0,0,1,1.56-.32,3.28,3.28,0,0,1,1.28.24,2.72,2.72,0,0,1,1,.67,3.07,3.07,0,0,1,.61,1,4.07,4.07,0,0,1,.21,1.35v2.7H30c.27,0,.4.11.4.32v.68c0,.28-.13.42-.4.42ZM27,17.3V14.51a2.14,2.14,0,0,0-.1-.65,1.52,1.52,0,0,0-.34-.59,1.66,1.66,0,0,0-.59-.44,2.17,2.17,0,0,0-1.66,0A2.15,2.15,0,0,0,23.17,14,2.45,2.45,0,0,0,23,15a2.13,2.13,0,0,0,1,2,2.77,2.77,0,0,0,1,.34ZM23.29,8.61a.82.82,0,1,1,.24.57A.78.78,0,0,1,23.29,8.61Zm2.36,0A.78.78,0,0,1,25.88,8,.82.82,0,0,1,27,8a.83.83,0,0,1,0,1.15.82.82,0,0,1-1.16,0A.77.77,0,0,1,25.65,8.61Z" transform="translate(-0.36 -0.03)"/><path class="cls-6" d="M30.14,18.72c-.27,0-.4-.11-.4-.32v-.68c0-.28.13-.42.4-.42h2.41c.27,0,.41.11.41.33v.67a.37.37,0,0,1-.41.42Z" transform="translate(-0.36 -0.03)"/><path class="cls-6" d="M32.3,18.72c-.27,0-.4-.11-.4-.32v-.68c0-.28.13-.42.4-.42h2.41c.27,0,.41.11.41.33v.67a.37.37,0,0,1-.41.42Z" transform="translate(-0.36 -0.03)"/><path class="cls-6" d="M34.46,18.72c-.27,0-.4-.11-.4-.32v-.68c0-.28.13-.42.4-.42h2.41c.27,0,.41.11.41.33v.67a.37.37,0,0,1-.41.42Z" transform="translate(-0.36 -0.03)"/><path class="cls-6" d="M36.62,18.72c-.27,0-.4-.11-.4-.32v-.68c0-.28.13-.42.4-.42H39c.28,0,.41.11.41.33v.67c0,.28-.13.42-.41.42Z" transform="translate(-0.36 -0.03)"/><path class="cls-6" d="M38.79,18.72c-.28,0-.41-.11-.41-.32v-.68c0-.28.13-.42.41-.42h2.65V12h1.42v6.73ZM40.06,8.61a.82.82,0,1,1,.24.57A.78.78,0,0,1,40.06,8.61Zm2.36,0a.82.82,0,1,1,.24.57A.78.78,0,0,1,42.42,8.61Z" transform="translate(-0.36 -0.03)"/><path class="cls-6" d="M48.72,18.79a5.09,5.09,0,0,1-.2,1.43,3.42,3.42,0,0,1-.61,1.15,2.8,2.8,0,0,1-1,.78,3.12,3.12,0,0,1-1.36.29,5.86,5.86,0,0,1-.75,0,4.27,4.27,0,0,1-.54-.07q0-.37.09-.72l.09-.68.4.07a2.2,2.2,0,0,0,.37.05h.34a1.47,1.47,0,0,0,1.39-.61,3.6,3.6,0,0,0,.36-1.82V12h1.42Z" transform="translate(-0.36 -0.03)"/><path class="cls-6" d="M51.56,6h1.36v12.7H51.56Z" transform="translate(-0.36 -0.03)"/><text class="cls-7" transform="translate(0 34.59) scale(0.99 1)">ERTQAA</text></g></g></g></g></svg>