<svg xmlns="http://www.w3.org/2000/svg" viewBox="0 0 132.27 65.09"><defs><style>.cls-1{fill:#ac9444;}.cls-2{fill:#5b6c28;}</style></defs><g id="Layer_2" data-name="Layer 2"><g id="Layer_1-2" data-name="Layer 1"><path class="cls-1" d="M3.83,61.55c.55-1.14,1.07-2.24,1.59-3.34A.35.35,0,0,1,5.79,58h1c.17,0,.32,0,.33.23s-.09.3-.3.29-.33.13-.33.36v3.81c0,.25.11.36.35.35s.28.07.28.26-.12.26-.3.26H5.16c-.18,0-.3-.05-.3-.26S5,63,5.15,63s.32-.07.32-.27c0-1.09,0-2.17,0-3.27-.24.51-.49,1-.73,1.52s-.59,1.22-.88,1.82c0,.09-.06.19-.19.2s-.16-.11-.21-.2c-.51-1-1-1.93-1.51-2.89a.5.5,0,0,0-.15-.19v2.64c0,.12,0,.23,0,.35a.27.27,0,0,0,.33.29c.19,0,.29.07.29.27s-.1.27-.29.26H.76c-.18,0-.27-.07-.27-.26S.56,63,.75,63s.36-.11.36-.34c0-1.27,0-2.54,0-3.81,0-.24-.1-.38-.37-.36s-.26-.12-.26-.3S.61,58,.77,58H1.7a.37.37,0,0,1,.39.24c.53,1,1.07,2.07,1.61,3.1Z"/><path class="cls-1" d="M13.16,63.05a2,2,0,0,1-1,.56,1,1,0,0,1-.82-1.89,4.31,4.31,0,0,1,1.41-.57c.2,0,.3-.13.26-.35s0-.22,0-.34a.59.59,0,0,0-.89-.46.3.3,0,0,0-.14.31.31.31,0,0,1-.27.37l-.46.14c-.24.07-.34,0-.32-.26a1.21,1.21,0,0,1,.61-.89,2,2,0,0,1,1.63-.28.86.86,0,0,1,.76.9c0,.6,0,1.2,0,1.81a2.26,2.26,0,0,0,0,.26c0,.52,0,.52.57.59a.21.21,0,0,1,.19.16.32.32,0,0,1-.1.33A1,1,0,0,1,13.16,63.05ZM13,62v-.31c0-.07,0-.1-.1-.07a2.66,2.66,0,0,0-.86.38.53.53,0,0,0-.11.72.48.48,0,0,0,.67.07A.79.79,0,0,0,13,62Z"/><path class="cls-1" d="M20,61.57c0,.57,0,1.28,0,2a1.41,1.41,0,0,1-.73,1.14,3.78,3.78,0,0,1-.85.37c-.12,0-.26.08-.31-.08s-.07-.32.1-.43l.06,0a1.25,1.25,0,0,0,.82-1.35c0-.79,0-1.57,0-2.36a.51.51,0,0,0-.39-.58c-.12,0-.25-.07-.26-.22s.15-.2.27-.25l1-.37c.23-.08.32,0,.33.23Z"/><path class="cls-2" d="M3,42.36a1,1,0,0,1-1-1,1,1,0,0,1,1-1.08,1,1,0,0,1,1,1.08A1,1,0,0,1,3,42.36Z"/><path class="cls-2" d="M5.41,42.36a1,1,0,0,1-1-1,1,1,0,1,1,2.05,0A1,1,0,0,1,5.41,42.36Z"/><path class="cls-1" d="M19,58.57a.61.61,0,0,1,1.21,0,.6.6,0,0,1-.6.61A.61.61,0,0,1,19,58.57Z"/><path class="cls-1" d="M63,3.25c-.44.16-.49.25-.37.7a2.1,2.1,0,0,0,.06.24c0,.16,0,.28-.16.3-.63.09-.91.56-1.18,1-.12.21-.25.42-.38.62a1.26,1.26,0,0,1-.58.54c-.06,0-.14.07-.15.12s-.22.24-.38.3a.77.77,0,0,0-.29.17.17.17,0,0,0-.05.2.16.16,0,0,0,.17.1c.56-.06.75.25.91.79.06.2-.06.34-.19.47a2,2,0,0,1-.81.48,6.92,6.92,0,0,0-1.06.43c-.16.09-.24.18-.17.38.12.36.2.74.3,1.11a2.11,2.11,0,0,0,.19.47c.17.28.26.32.57.21a.51.51,0,0,1,.4,0,.48.48,0,0,0,.62-.21,1.9,1.9,0,0,1,.5-.48,1.11,1.11,0,0,0,.45-.7,2.7,2.7,0,0,1,.95-1.49.2.2,0,0,0,.07-.26c-.08-.18,0-.28.16-.33a4.69,4.69,0,0,1,.6-.2.74.74,0,0,0,.45-.32.43.43,0,0,1,.78,0,1.07,1.07,0,0,0,1.15.5c.14,0,.24,0,.3.14a.39.39,0,0,0,.19.19c.14.08.23.17.15.35a.13.13,0,0,0,0,.17.15.15,0,0,0,.18,0,.39.39,0,0,0,0-.7c-.06,0-.17-.1-.12-.21s.15-.06.24,0,.21.11.33,0a2.31,2.31,0,0,0-1.28-.6A1,1,0,0,1,64.76,7c0-.13,0-.22.14-.27s.18,0,.23.13a.53.53,0,0,0,.66.29c.51-.16.87.18,1.26.37.13.06.14.25.17.39a.92.92,0,0,0,.49.65.68.68,0,0,0,.61.11.12.12,0,0,1,.14,0c0,.05,0,.08,0,.12a.33.33,0,0,0,0,.42.21.21,0,0,0,.38-.08,1,1,0,0,0-.21-.86c-.19-.16-.2-.27,0-.46,0,0,.05,0,.05,0,0-.37.29-.4.54-.48a.85.85,0,0,0,.53-.62c0-.07,0-.13-.07-.19a.77.77,0,0,1-.14-1,2.1,2.1,0,0,1,.62-.77l.29-.17c.1,0,.21-.09.3,0s0,.17,0,.24a.31.31,0,0,0,.09.38.36.36,0,0,0,.43,0,.49.49,0,0,0,.24-.35c0-.07-.08-.08-.12-.12A.4.4,0,0,1,71.5,4L72,3.84c.15,0,.18,0,.15.14a.54.54,0,0,1-.09.22c-.1.19-.21.4-.08.57a.79.79,0,0,0,.66.31A1.8,1.8,0,0,0,73.12,5a.34.34,0,0,1,.35.11.77.77,0,0,1,.12.47c0,.06-.09.08-.15.11A4.85,4.85,0,0,1,72,6.06a2,2,0,0,0-1.15.41,1.08,1.08,0,0,1-.28.15,1.71,1.71,0,0,0-1,1.18.28.28,0,0,0,.08.3,1,1,0,0,0,.76.34,3.94,3.94,0,0,0,1.08-.18,6.14,6.14,0,0,1,.85-.19c.21,0,.34,0,.39.26s.16.63.24.95a.43.43,0,0,1-.3.57,3.27,3.27,0,0,1-.53.17,7.87,7.87,0,0,0-1.14.53c-.27.1-.56.17-.83.29a.91.91,0,0,1-.79-.05,1.18,1.18,0,0,0-.62-.1.46.46,0,0,0-.45.6c0,.14,0,.27.07.41s0,.2-.17.14c-.41-.2-.88-.06-1.29-.28a1.11,1.11,0,0,0-.76,0,3.19,3.19,0,0,1-.6.12c-.16,0-.32,0-.28-.28a1.09,1.09,0,0,0-.11-.61.38.38,0,0,0-.49-.25c-.8.26-1.62.47-2.4.81a1.34,1.34,0,0,0-.66.51.38.38,0,0,1-.26.18,4.27,4.27,0,0,1-1,.25c-.11,0-.17.09-.22.16a7.51,7.51,0,0,0-.47.68c-.08.12-.13.16-.27.11a19.41,19.41,0,0,0-3.82-.95,18.61,18.61,0,0,0-2.24-.18c-.52,0-.52,0-.32-.46a20,20,0,0,1,6.33-8A18.76,18.76,0,0,1,66.91.39,21.37,21.37,0,0,1,69.79,0s.1,0,.13,0H72.8a2.13,2.13,0,0,0,.71.09A20.62,20.62,0,0,1,80.66,2a16.89,16.89,0,0,1,8.42,8.54c.07.17.13.35.21.52s0,.19-.12.23a34.75,34.75,0,0,0-4.85,1.88,38.52,38.52,0,0,0-4.06,2.17,3.11,3.11,0,0,1-.61.29,2.17,2.17,0,0,0-1.14.66.38.38,0,0,1-.52-.06c0-.09.05-.1.1-.13s.14,0,.14-.11-.09-.1-.15-.13c-.46-.23-.93-.44-1.38-.68-.29-.16-.64-.28-.73-.69,0-.13-.19-.17-.3-.23a1.22,1.22,0,0,1-.76-1,.76.76,0,0,0-.55-.67.46.46,0,0,1-.35-.3,1.49,1.49,0,0,0-.89-.94,2.12,2.12,0,0,1-.53-.35c0-.05-.1-.09-.07-.17s.1-.08.18-.09a.54.54,0,0,1,.21,0,.3.3,0,0,0,.39-.08c0-.06.09-.12.18-.07s.07.12,0,.19,0,.19.09.24a2,2,0,0,0,.39.25,1.23,1.23,0,0,1,.6.61.87.87,0,0,0,.4.38,1,1,0,0,1,.5.45c0,.07.11.12.17.17a5.29,5.29,0,0,0,.6.36,1.46,1.46,0,0,1,.87,1.1.6.6,0,0,0,.39.51.49.49,0,0,1,.28.27c.1.22.26.21.44.13a.91.91,0,0,0,.43-.39,1.55,1.55,0,0,1,.78-.6,1.81,1.81,0,0,0,.92-.76,3.72,3.72,0,0,1,.55-.65,4.34,4.34,0,0,0,1.19-2.09.44.44,0,0,0-.16-.37,2.45,2.45,0,0,0-.84-.57c-.2-.1-.43-.14-.57-.35s-.13,0-.17,0-.18.27-.27.41a2.07,2.07,0,0,1-.33.39c-.19.17-.35.13-.46-.11,0-.09-.07-.19-.11-.29s-.06-.11-.13-.09S79,9.93,79,10s.08.25-.06.28a.31.31,0,0,1-.32-.21,1,1,0,0,0-.48-.43A.79.79,0,0,1,77.68,9c0-.29.06-.37.33-.28a7.71,7.71,0,0,1,.75.29,2.22,2.22,0,0,0,1.6.2,1,1,0,0,1,.63,0,1.41,1.41,0,0,0,.81-.06c.5-.14,1-.36,1.49-.45a1.35,1.35,0,0,1,.79.09.94.94,0,0,0,.66,0,.35.35,0,0,1,.51.37c0,.2.29.36.5.28s.35-.39.55-.57c0,0,0-.12-.08-.18a16.26,16.26,0,0,0-2.83-3.14,17.59,17.59,0,0,0-8.69-4,19.7,19.7,0,0,0-8.57.48c-.14,0-.2.09-.16.25a.7.7,0,0,1-.36.77,11.71,11.71,0,0,1-2.15.69A.41.41,0,0,1,63,3.75c-.11-.14,0-.31,0-.46V3.23Z"/><path class="cls-1" d="M132.27,59.78c-.07,0,0,.13-.12.14-.32,0-.4.3-.51.53-.58,1.21-1.15,2.42-1.74,3.62a1.7,1.7,0,0,1-2,1c-.25-.05-.3-.15-.17-.37l.06-.11a.54.54,0,0,1,.69-.4,1.11,1.11,0,0,0,1.19-.85.29.29,0,0,0,0-.16l-1.38-2.85a.52.52,0,0,0-.41-.37c-.17,0-.12-.19-.12-.3a.17.17,0,0,1,.18-.19h1.49c.14,0,.2.08.2.22s0,.28-.17.29-.21.1-.14.25c.3.64.6,1.28.91,2l.92-2c.07-.14,0-.2-.13-.21s-.19-.16-.19-.3.1-.21.24-.21H132a.35.35,0,0,1,.29.15Z"/><path class="cls-1" d="M62.08,33.29c0-.1-.1-.13-.16-.18a43.18,43.18,0,0,0-10.17-6A34.25,34.25,0,0,0,44,25a41.87,41.87,0,0,0-7.75-.46,31.09,31.09,0,0,0-4.08.37.11.11,0,0,0-.08,0c2.6-1.46,5-3.16,7.55-4.76s5-3.21,7.52-4.84A3,3,0,0,1,48.39,15a23.69,23.69,0,0,1,4.68-.42,23.53,23.53,0,0,1,13.84,4.18,23,23,0,0,1,4.72,4.47c0,.06-.09.12-.14.17a24.48,24.48,0,0,0-3.4,4,19.26,19.26,0,0,0-2.2,4.22.26.26,0,0,1-.3.21c-.13,0-.26,0-.39,0a5.77,5.77,0,0,0-2.35.8C62.56,32.84,62.36,33.11,62.08,33.29Z"/><path class="cls-2" d="M62.08,33.29c.28-.18.48-.45.77-.63a5.77,5.77,0,0,1,2.35-.8c.13,0,.26,0,.39,0a.26.26,0,0,0,.3-.21,19.26,19.26,0,0,1,2.2-4.22,24.48,24.48,0,0,1,3.4-4c.05-.05.09-.11.14-.17.59-.49,1.17-1,1.77-1.48a38.52,38.52,0,0,1,6.36-4.06,65.82,65.82,0,0,1,13.09-4.93l.12,0a.4.4,0,0,1-.09.25c-.62,1.14-1.25,2.28-1.86,3.42a.35.35,0,0,1-.29.21,44.33,44.33,0,0,0-9.81,2.71,32.7,32.7,0,0,0-8.54,4.91,21.25,21.25,0,0,0-5.67,6.9c-.1.18-.18.36-.27.54s-.06.15.07.16l.56.08c.09,0,.12-.05.17-.1a31.39,31.39,0,0,1,9.51-7.31A52,52,0,0,1,89,20.05a74.17,74.17,0,0,1,7.83-1.39q3.06-.39,6.14-.56l1.31-.07-1.24,1.11-2.54,2.28a.38.38,0,0,1-.28.12,49.42,49.42,0,0,0-7.3.17,50.63,50.63,0,0,0-11.11,2.2A36.43,36.43,0,0,0,72,28.66,28.93,28.93,0,0,0,68.11,32s-.09.07-.1.15l.65.23c.1,0,.17,0,.24-.07a32.08,32.08,0,0,1,5.25-3.21,36.59,36.59,0,0,1,9.66-3.16,41.66,41.66,0,0,1,6.1-.65,46,46,0,0,1,6,.2l1.9.21c0,.1-.11.1-.17.13l-2.77,1.25a.55.55,0,0,1-.28.06,43.39,43.39,0,0,0-5,0,49.79,49.79,0,0,0-6.57.7,39.52,39.52,0,0,0-13.52,4.74l-.19.12.6.32c.33.19.65.37,1,.58a.46.46,0,0,0,.41,0A44.85,44.85,0,0,1,79,32.07a59.73,59.73,0,0,1,8.67-.25c1.2,0,2.39.12,3.58.21v.08c-.64,0-1.28,0-1.92,0-2.56,0-5.12.14-7.67.35A43.87,43.87,0,0,0,72,34.16C70,34.8,68,35.48,66,36.29a.67.67,0,0,1-.52,0q-2.1-.83-4.2-1.62A48.64,48.64,0,0,0,55.35,33a67.47,67.47,0,0,0-6.91-1.21c-1.57-.19-3.13-.34-4.71-.46C41.48,31.15,39.22,31,37,31c-1.78-.06-3.56-.12-5.34-.15H30.14v-.06c.66-.05,1.32-.11,2-.15,2.72-.17,5.45-.28,8.19-.26,2.39,0,4.79.13,7.18.36a66.18,66.18,0,0,1,14.07,2.86C61.87,33.67,61.91,33.39,62.08,33.29Z"/><path class="cls-2" d="M32,51.65a4,4,0,0,1-5.06,1.73,3.67,3.67,0,0,1-1.34-1.1c-.1-.13-.15-.18-.28,0a2.25,2.25,0,0,1-1.66.65H18.21a3.39,3.39,0,0,1-1.76-.42.18.18,0,0,0-.22,0,4.11,4.11,0,0,1-2,.42H8.81a5.11,5.11,0,0,1-1.11-.13,2,2,0,0,1-1.34-1c0-.06,0-.14-.13-.18a3.16,3.16,0,0,1-2.16,1.32,3,3,0,0,1-3-1.23,5.49,5.49,0,0,1,.1-6.73,3.51,3.51,0,0,1,4.53-.73c.17.11.35.21.51.33s.17,0,.2-.07,0,0,0-.05a.7.7,0,0,1,1-.5.33.33,0,0,1,.28.37c-.15,2.07,0,4.14-.07,6.21a1.94,1.94,0,0,0,.07.63.76.76,0,0,0,.81.63c1.8,0,3.6,0,5.39,0a5,5,0,0,0,1.49-.24c.17,0,.2-.11.07-.25a8.71,8.71,0,0,0-5.23-2.67l-.22,0a.36.36,0,0,1-.22-.63,9,9,0,0,1,5.84-3.12,8.11,8.11,0,0,1,4.22.84,11.1,11.1,0,0,1,2.74,1.85c.39.36.33.62-.16.78a13.25,13.25,0,0,0-5.06,3.11c-.18.18-.17.22.07.3a2.3,2.3,0,0,0,.74.07h5.06a1.3,1.3,0,0,0,1.21-.66,5.68,5.68,0,0,0,.63-1.63,15.81,15.81,0,0,1,.65-2.26,3.09,3.09,0,0,1,2.93-1.94,3.47,3.47,0,0,1,3.4,2.4,4.78,4.78,0,0,1,.36,2.48.49.49,0,0,0,0,.12,2,2,0,0,0,1.9,1.49h7.83c.22,0,.27,0,.26-.27a10.25,10.25,0,0,0-.93-4.22,4.19,4.19,0,0,0-.71-1A1.94,1.94,0,0,0,38.18,46a4,4,0,0,0-1.46,2c-.06.15-.1.3-.15.46s-.13.28-.32.3a.36.36,0,0,1-.37-.21c-.14-.26-.29-.51-.41-.78a.37.37,0,0,1,.19-.54,1.59,1.59,0,0,0,.52-.6A4.94,4.94,0,0,1,37.4,45.2a3.6,3.6,0,0,1,4.6.17,7.15,7.15,0,0,1,2,3.43,10.74,10.74,0,0,1,.45,2.63c0,.22.07.3.31.29.57,0,1.14,0,1.71,0a1.21,1.21,0,0,0,1-.52,5.44,5.44,0,0,0,.74-1.84A13.32,13.32,0,0,1,49,47a3,3,0,0,1,2.79-1.79,3.39,3.39,0,0,1,3.39,2.19,4.77,4.77,0,0,1,.45,2.63.48.48,0,0,0,0,.26,2.78,2.78,0,0,0,.55.88,1.69,1.69,0,0,0,1.53.51c.88-.08,1.26-.49,1.26-1.42,0-1.36,0-2.72,0-4.08s0-3,0-4.49a.33.33,0,0,0-.26-.37.55.55,0,0,1-.24-.12.33.33,0,0,1,.12-.58c.6-.14,1.21-.26,1.81-.38a.36.36,0,0,1,.4.31,1.93,1.93,0,0,1,0,.24V50.1a2.73,2.73,0,0,1-.77,2.06,2.57,2.57,0,0,1-1.47.68,5.1,5.1,0,0,1-1.56,0,2.69,2.69,0,0,1-1.68-.9l-.24-.26a9,9,0,0,1-.55.78,3.87,3.87,0,0,1-5.8-.12c-.14-.18-.21-.21-.39,0a2.22,2.22,0,0,1-1.59.58H34.48A3,3,0,0,1,32,51.65ZM1.91,48.35v.29a4.51,4.51,0,0,0,.55,2.22,1.54,1.54,0,0,0,2.37.49,2.23,2.23,0,0,0,.89-1.44,11.78,11.78,0,0,0,.1-2.59,3.87,3.87,0,0,0-.37-1.67,1.73,1.73,0,0,0-2.13-.72,1.93,1.93,0,0,0-.92,1A5.3,5.3,0,0,0,1.91,48.35Zm28.66,1.38a5.42,5.42,0,0,0-.11-1.24,2.91,2.91,0,0,0-.94-1.8,1.31,1.31,0,0,0-2,.35,4.46,4.46,0,0,0-.42,1A27.39,27.39,0,0,1,26.18,51a.15.15,0,0,0,.05.19,4.38,4.38,0,0,0,1.13,1.06A1.81,1.81,0,0,0,30,51.64,3.25,3.25,0,0,0,30.57,49.73Zm23.15-.26a4.44,4.44,0,0,0-.16-1.24,2.8,2.8,0,0,0-.91-1.57,1.3,1.3,0,0,0-2,.38,5,5,0,0,0-.46,1.12,25,25,0,0,1-.84,2.8.15.15,0,0,0,0,.17,5.29,5.29,0,0,0,1,1,1.78,1.78,0,0,0,2.4-.14A3.33,3.33,0,0,0,53.72,49.47ZM16.39,50A10.67,10.67,0,0,1,20,47.59c-2.54-2.08-5.44-1.94-7.5.12A7.18,7.18,0,0,1,16.39,50Z"/><path class="cls-2" d="M76.6,51.28a3.23,3.23,0,0,1-2.5,1.41,3.05,3.05,0,0,1-2.8-1.37A5.6,5.6,0,0,1,71.2,45a3.57,3.57,0,0,1,5-1l0,0c.15.09.31.27.45.26s.14-.29.22-.44a.44.44,0,0,1,.32-.24,1.57,1.57,0,0,1,.53,0,.34.34,0,0,1,.32.43A10.44,10.44,0,0,0,78,45.56v4.69a2.88,2.88,0,0,0,0,.41.86.86,0,0,0,1,.86h9.44a7.23,7.23,0,0,0,1.7-.23,9.05,9.05,0,0,0-1.24-1.1,8.12,8.12,0,0,0-4-1.64l-.22,0a.37.37,0,0,1-.17-.66,11.16,11.16,0,0,1,1.91-1.65,7.81,7.81,0,0,1,4.74-1.44A8.83,8.83,0,0,1,95.18,46a10.4,10.4,0,0,1,2,1.44.86.86,0,0,1,.14.13.37.37,0,0,1-.17.65,13.11,13.11,0,0,0-4.44,2.47c-.21.17-.4.35-.62.54a1.26,1.26,0,0,0,.81.31h8.25a2.4,2.4,0,0,0,2-.77,3.62,3.62,0,0,0,.67-1.31c.2-.69.37-1.38.59-2.06a3.2,3.2,0,0,1,1.44-2,3.47,3.47,0,0,1,4.63.94A4.81,4.81,0,0,1,111,51.2a3.87,3.87,0,0,1-6.53.94c-.15-.2-.24-.21-.43,0a2.73,2.73,0,0,1-1.86.61H97.78c-1.69,0-3.37,0-5,0a3,3,0,0,1-1.66-.42.22.22,0,0,0-.22,0,4.56,4.56,0,0,1-2.15.44l-9.74,0a2.73,2.73,0,0,1-1.66-.47A2.26,2.26,0,0,1,76.6,51.28Zm-.42-3.39v-.54a5.76,5.76,0,0,0-.28-1.74,1.71,1.71,0,0,0-3-.41,5,5,0,0,0-.39.72A6.62,6.62,0,0,0,72.24,49a3.67,3.67,0,0,0,.63,1.79,1.48,1.48,0,0,0,2,.49A2.22,2.22,0,0,0,76,49.8,8.13,8.13,0,0,0,76.18,47.89Zm33.27,1.22c0-.24,0-.47-.08-.7a3.53,3.53,0,0,0-.8-1.83,1.37,1.37,0,0,0-2.28.24,4.81,4.81,0,0,0-.36.85,29.72,29.72,0,0,1-.93,3.09c0,.08,0,.12,0,.17a4.47,4.47,0,0,0,1,1,2.17,2.17,0,0,0,1.41.43,1.87,1.87,0,0,0,1.41-.94A3.63,3.63,0,0,0,109.45,49.11ZM94.62,47.59a5.31,5.31,0,0,0-7.5.12,6.92,6.92,0,0,1,3.38,1.83c.16.15.31.42.47.43s.33-.27.49-.42A10.61,10.61,0,0,1,94.62,47.59Z"/><path class="cls-2" d="M123.72,52.7h-7.2a2.9,2.9,0,0,1-1.49-.38,2.25,2.25,0,0,1-1.11-2c0-1,0-1.92,0-2.88V41.66c0-.31,0-.37-.35-.41a5.25,5.25,0,0,0-.56,0c-.31,0-.43-.15-.45-.46v-.25c0-.34.13-.47.47-.49l2.24-.1c.39,0,.51.11.51.5v9c0,.29,0,.57,0,.85A1.14,1.14,0,0,0,117,51.52h11.74c.23,0,.28-.07.27-.28a11.25,11.25,0,0,0-.73-3.81A4.84,4.84,0,0,0,127.4,46a2,2,0,0,0-2.68-.19,4.12,4.12,0,0,0-1.49,2.06c-.06.15-.1.31-.16.46a.36.36,0,0,1-.31.27.36.36,0,0,1-.36-.2c-.15-.28-.29-.56-.43-.84a.33.33,0,0,1,.14-.47,1.75,1.75,0,0,0,.64-.71A4.8,4.8,0,0,1,124,44.85a3.64,3.64,0,0,1,4.46.15,6.66,6.66,0,0,1,2,3.12,11.19,11.19,0,0,1,.61,3.19c0,.18.06.23.23.21a.36.36,0,0,1,.4.18.43.43,0,0,1-.08.49.75.75,0,0,0-.13.18.64.64,0,0,1-.67.34h-7.15Z"/><path class="cls-2" d="M64.66,46.58v5.75c0,.45-.12.56-.56.56h-.74c-.41,0-.53-.12-.53-.54,0-3.49,0-7,0-10.46,0-.29,0-.5-.37-.57A.34.34,0,0,1,62.2,41c0-.19.13-.28.31-.32l1.72-.36a.36.36,0,0,1,.42.33,2.09,2.09,0,0,1,0,.25Z"/><path class="cls-1" d="M25.69,59.87a6.81,6.81,0,0,1,.64-.41,1.1,1.1,0,0,1,1.49.41c.08.12.12.08.19,0a2.88,2.88,0,0,1,.7-.45,1.07,1.07,0,0,1,1.56.91,17.29,17.29,0,0,1,.05,1.9v.32c0,.36,0,.39.4.43a.23.23,0,0,1,.23.28.22.22,0,0,1-.25.25H29c-.18,0-.24-.09-.24-.26S28.82,63,29,63s.37-.12.38-.38a18.48,18.48,0,0,0,0-2c0-.41-.26-.56-.65-.47a1.61,1.61,0,0,0-.59.28.26.26,0,0,0-.11.23c0,.64,0,1.28,0,1.92,0,.32,0,.36.37.38s.24.11.24.29-.1.24-.26.24H26.71c-.18,0-.28-.06-.29-.25a.25.25,0,0,1,.27-.28c.32,0,.36-.07.37-.4V60.77c0-.55-.29-.73-.8-.53l-.09,0a.64.64,0,0,0-.49.74c0,.5,0,1,0,1.51s0,.43.42.48c.18,0,.21.13.21.28s-.05.25-.22.25H24.34c-.17,0-.22-.12-.22-.26s.05-.28.22-.26c.37,0,.4-.15.41-.45,0-.6,0-1.19,0-1.78a.52.52,0,0,0-.37-.56c-.11,0-.25-.07-.25-.22s.13-.2.26-.25l.95-.36c.27-.1.34,0,.35.24Z"/><path class="cls-1" d="M51.22,59.93a3.73,3.73,0,0,1,.74-.46,1.2,1.2,0,0,1,1.75,1,15.15,15.15,0,0,1,0,1.65,4.34,4.34,0,0,1,0,.51c0,.22.07.36.32.36s.3,0,.31.23,0,.3-.26.3H52.41a.21.21,0,0,1-.24-.23c0-.15,0-.26.21-.29.41-.05.42-.07.42-.47,0-.6,0-1.2,0-1.8s-.23-.61-.69-.56a2.2,2.2,0,0,0-.78.31.22.22,0,0,0-.1.21v1.92c0,.25.09.39.36.39s.28.08.27.28-.14.24-.31.24H50c-.16,0-.29,0-.29-.23s.08-.3.26-.29a.32.32,0,0,0,.36-.36V59.06a.48.48,0,0,0-.37-.5c-.12,0-.25-.07-.25-.23s.13-.19.25-.23l1-.36c.29-.11.36-.06.36.24Z"/><path class="cls-1" d="M64.31,60.71c0-.79,0-1.36,0-1.93,0-.2-.12-.3-.31-.29s-.31-.09-.3-.31.15-.21.3-.21h1.66c.17,0,.29,0,.29.23s-.07.31-.27.29-.36.13-.36.37c0,1.06-.06,2.11,0,3.17a1.12,1.12,0,0,0,1.23,1.13.92.92,0,0,0,.91-.65,2.85,2.85,0,0,0,.14-1c0-.9,0-1.79,0-2.68,0-.24-.1-.35-.34-.34S67,58.41,67,58.2s.14-.23.3-.23h1.39c.16,0,.3,0,.31.23a.24.24,0,0,1-.29.29c-.26,0-.35.12-.35.36,0,.8,0,1.61,0,2.41a7.94,7.94,0,0,1,0,.85,1.62,1.62,0,0,1-1.23,1.47,2.85,2.85,0,0,1-1.45,0A1.59,1.59,0,0,1,64.31,62C64.29,61.49,64.31,61,64.31,60.71Z"/><path class="cls-1" d="M74.22,59.91a4,4,0,0,1,.79-.48,1.2,1.2,0,0,1,1.7,1c.08.66,0,1.33,0,2,0,.09,0,.19,0,.29a.25.25,0,0,0,.3.27c.19,0,.32,0,.31.27s-.14.26-.32.26H75.48c-.17,0-.29,0-.3-.25s.1-.28.3-.28.31-.09.31-.31c0-.65,0-1.31,0-2,0-.44-.23-.61-.67-.55a2,2,0,0,0-.79.32.22.22,0,0,0-.1.22c0,.62,0,1.24,0,1.86,0,.35,0,.39.39.43a.24.24,0,0,1,.24.28c0,.16-.08.25-.24.25H72.88c-.17,0-.22-.11-.23-.26s0-.25.22-.27c.39,0,.41-.06.41-.46,0-.58,0-1.15,0-1.73a.52.52,0,0,0-.39-.59c-.11,0-.24-.08-.23-.24s.14-.18.25-.23l1-.35c.27-.11.34,0,.35.25Z"/><path class="cls-1" d="M44.5,63.06a2.05,2.05,0,0,1-1,.55,1,1,0,0,1-1.22-.6,1.05,1.05,0,0,1,.42-1.3,4.73,4.73,0,0,1,1.44-.58c.19-.05.23-.13.22-.3s0-.28,0-.42a.4.4,0,0,0-.25-.41.74.74,0,0,0-.65,0c-.13.07-.13.21-.13.33a.3.3,0,0,1-.27.34l-.47.14c-.23.07-.32,0-.3-.24a.92.92,0,0,1,.19-.52,2,2,0,0,1,2.29-.6.85.85,0,0,1,.52.84c0,.6,0,1.2,0,1.81a4.84,4.84,0,0,0,0,.53.31.31,0,0,0,.37.32c.15,0,.31,0,.35.16s-.07.33-.26.4A.91.91,0,0,1,44.5,63.06Zm-.11-1a2.76,2.76,0,0,1,0-.29c0-.07,0-.11-.1-.09a2.92,2.92,0,0,0-.88.4.53.53,0,0,0-.1.7.46.46,0,0,0,.65.1A.82.82,0,0,0,44.39,62Z"/><path class="cls-1" d="M36.94,63.05a2,2,0,0,1-1,.56,1,1,0,0,1-.83-1.87,4.21,4.21,0,0,1,1.45-.6c.2,0,.27-.14.24-.34s0-.22,0-.34a.59.59,0,0,0-.89-.46.34.34,0,0,0-.15.33.31.31,0,0,1-.27.35l-.48.15c-.21.06-.3,0-.29-.22A.94.94,0,0,1,35,60a2,2,0,0,1,2.24-.58.84.84,0,0,1,.55.84c0,.62,0,1.23,0,1.85a4.38,4.38,0,0,0,0,.51.3.3,0,0,0,.35.31c.15,0,.33-.05.37.17s-.09.33-.28.4C37.73,63.72,37.19,63.7,36.94,63.05Zm-.12-1v-.28c0-.07,0-.11-.1-.08a2.66,2.66,0,0,0-.86.38.54.54,0,0,0-.12.72.49.49,0,0,0,.68.07A.82.82,0,0,0,36.82,62Z"/><path class="cls-1" d="M96.8,61.5c-.34,0-.69,0-1,0s-.24.08-.21.26a1.32,1.32,0,0,0,1.54,1.14,2.61,2.61,0,0,0,.72-.22c.11-.05.23-.15.34,0s0,.46-.07.52a2.51,2.51,0,0,1-2.43.22,2,2,0,0,1-1.13-1.89,2,2,0,0,1,1-1.93,1.71,1.71,0,0,1,1.89,0,1.78,1.78,0,0,1,.74,1.7c0,.16-.1.21-.24.21ZM96.19,61a5.87,5.87,0,0,0,.69,0,.25.25,0,0,0,.22-.12,1,1,0,0,0-.28-.86.63.63,0,0,0-.75,0,1.29,1.29,0,0,0-.43.69c-.09.3-.08.31.21.31Z"/><path class="cls-1" d="M111.71,60.07v.22c0,.17,0,.33-.23.35a.3.3,0,0,1-.38-.27.57.57,0,0,0-.77-.5.39.39,0,0,0-.24.66,2,2,0,0,0,.57.42c.25.14.51.28.75.44a1.16,1.16,0,0,1-.29,2.11,2.51,2.51,0,0,1-1.9-.1.27.27,0,0,1-.18-.23l-.06-.81c0-.14,0-.24.2-.24s.34,0,.38.19a1.27,1.27,0,0,0,.11.38.77.77,0,0,0,1.28.15.43.43,0,0,0-.07-.62,6.44,6.44,0,0,0-.8-.47,4.13,4.13,0,0,1-.49-.32,1.15,1.15,0,0,1-.47-1.31,1.21,1.21,0,0,1,1.16-.78,3.33,3.33,0,0,1,.94.09C111.71,59.57,111.71,59.56,111.71,60.07Z"/><path class="cls-1" d="M89,62.23c.3-.71.58-1.39.85-2.06.06-.14,0-.22-.12-.21s-.27-.12-.27-.3.13-.22.29-.22h1c.15,0,.27,0,.28.2s0,.29-.21.31-.23.16-.28.28c-.37.82-.73,1.63-1.09,2.45-.1.25-.21.49-.31.74a.3.3,0,0,1-.29.21.32.32,0,0,1-.33-.2l-1.32-2.74c-.08-.17-.18-.35-.27-.52a.39.39,0,0,0-.3-.22c-.18,0-.17-.19-.17-.33s.1-.18.23-.18h1.39c.16,0,.26.05.27.21s0,.3-.21.3-.19.09-.12.23C88.39,60.84,88.71,61.51,89,62.23Z"/><path class="cls-1" d="M103.56,59.84a3.39,3.39,0,0,1,.62-.42,1,1,0,0,1,1.17.32c.08.13.1.24,0,.35s-.26.29-.4.43-.24.14-.36,0-.23-.34-.49-.26a.76.76,0,0,0-.55.63c0,.58,0,1.16,0,1.75,0,.34.07.39.41.4.18,0,.33,0,.33.26s-.07.27-.24.27h-1.88c-.17,0-.22-.11-.22-.26s0-.25.21-.27c.42,0,.43,0,.43-.46,0-.64,0-1.27,0-1.9a.33.33,0,0,0-.23-.34l-.28-.13A.19.19,0,0,1,102,60a.21.21,0,0,1,.14-.18l1.17-.41c.17-.06.27,0,.28.19S103.55,59.73,103.56,59.84Z"/><path class="cls-1" d="M122.94,61.23a8.33,8.33,0,0,0,0,1.2c.11.49.4.64.86.44l.18-.09a.15.15,0,0,1,.22.08.43.43,0,0,1-.19.56,1.84,1.84,0,0,1-.92.19c-.71-.06-1-.44-1.12-1.2s0-1.43,0-2.15c0-.21,0-.31-.28-.28s-.23.05-.29-.1,0-.21.13-.28c.33-.34.67-.67,1-1,.07-.08.15-.17.27-.12s.1.17.11.28-.09.46,0,.59.4,0,.61,0h.24c.28,0,.37.12.33.39a.2.2,0,0,1-.23.19c-.27,0-.54,0-.81,0s-.18.05-.17.18Z"/><path class="cls-1" d="M82.52,61.13v1.44c0,.36,0,.39.39.43a.25.25,0,0,1,.24.28c0,.16-.08.25-.24.25H81.18c-.17,0-.22-.1-.23-.25s0-.26.24-.28c.35,0,.37,0,.38-.38,0-.65,0-1.3,0-1.95a.39.39,0,0,0-.27-.39l-.22-.11A.17.17,0,0,1,81,60a.2.2,0,0,1,.14-.18c.38-.14.77-.29,1.16-.42.22-.07.26.07.26.24Z"/><path class="cls-1" d="M117.28,61.13V62.6c0,.33,0,.38.37.4s.26.11.26.28a.23.23,0,0,1-.27.25H116c-.18,0-.24-.09-.24-.26s0-.28.23-.26.39-.13.39-.38c0-.65,0-1.31,0-2a.39.39,0,0,0-.27-.38l-.22-.11a.18.18,0,0,1-.12-.19.21.21,0,0,1,.14-.18q.58-.22,1.17-.42c.21-.07.25.08.25.24Z"/><path class="cls-2" d="M74.36,41a1,1,0,0,1-2.08,0,1,1,0,1,1,2.08,0Z"/><path class="cls-2" d="M76.77,41a1,1,0,1,1-2.06,0,1,1,0,0,1,1-1.09A1.06,1.06,0,0,1,76.77,41Z"/><path class="cls-2" d="M124.55,56a1,1,0,0,1-1-1.05,1,1,0,1,1,2,0A1,1,0,0,1,124.55,56Z"/><path class="cls-2" d="M38.81,55.14a1,1,0,0,1,1-1,1,1,0,0,1,1,1.07,1,1,0,0,1-1,1A1,1,0,0,1,38.81,55.14Z"/><path class="cls-1" d="M116.71,58a.6.6,0,0,1,0,1.2.59.59,0,0,1-.59-.61A.58.58,0,0,1,116.71,58Z"/><path class="cls-1" d="M81.94,58a.6.6,0,0,1,0,1.2.59.59,0,0,1-.59-.6A.58.58,0,0,1,81.94,58Z"/></g></g></svg>