<svg xmlns="http://www.w3.org/2000/svg" viewBox="0 0 124.25 60.9"><defs><style>.cls-1{fill:#ac9444;}.cls-2{fill:#5b6c28;}</style></defs><g id="Layer_2" data-name="Layer 2"><g id="Layer_1-2" data-name="Layer 1"><g id="Layer_2-2" data-name="Layer 2"><g id="Layer_1-2-2" data-name="Layer 1-2"><path class="cls-1" d="M55.07,5.45c-.74.26-.82.42-.62,1.17a2.6,2.6,0,0,0,.1.4c0,.27,0,.47-.27.5-1.06.16-1.52.94-2,1.68-.2.35-.42.7-.63,1a2.09,2.09,0,0,1-1,.9.32.32,0,0,0-.25.21,1.51,1.51,0,0,1-.63.5,1.26,1.26,0,0,0-.49.28.29.29,0,0,0-.08.34.28.28,0,0,0,.28.17c.94-.1,1.26.41,1.53,1.32.1.33-.1.57-.32.79a3.3,3.3,0,0,1-1.36.8,11.43,11.43,0,0,0-1.78.72c-.26.15-.4.3-.28.64.2.6.33,1.24.5,1.86a3.85,3.85,0,0,0,.32.79c.28.47.44.53.95.35a.89.89,0,0,1,.68,0,.8.8,0,0,0,1-.35,3.4,3.4,0,0,1,.84-.81,1.85,1.85,0,0,0,.76-1.17A4.47,4.47,0,0,1,54,15.08a.35.35,0,0,0,.12-.43c-.14-.3,0-.47.26-.56a9.16,9.16,0,0,1,1-.33,1.25,1.25,0,0,0,.75-.54.72.72,0,0,1,1-.35.74.74,0,0,1,.35.35,1.78,1.78,0,0,0,1.93.84c.23,0,.4,0,.5.23a.62.62,0,0,0,.32.32c.23.14.38.29.25.59a.21.21,0,0,0,0,.28.24.24,0,0,0,.3,0,.64.64,0,0,0,.3-.87.67.67,0,0,0-.3-.3.26.26,0,0,1-.2-.35c.08-.18.25-.1.4,0a.42.42,0,0,0,.56,0,4,4,0,0,0-2.15-1A1.65,1.65,0,0,1,58,11.73c0-.22,0-.37.23-.45s.3,0,.39.22a.88.88,0,0,0,1.1.48c.86-.27,1.46.3,2.11.62.22.1.24.42.29.66A1.55,1.55,0,0,0,63,14.35a1.13,1.13,0,0,0,1,.18.21.21,0,0,1,.24,0v.2a.54.54,0,0,0,0,.7.36.36,0,0,0,.49.1.37.37,0,0,0,.14-.23,1.64,1.64,0,0,0-.35-1.44c-.32-.27-.33-.45,0-.77h.09c0-.62.48-.67.9-.81a1.4,1.4,0,0,0,.89-1,.34.34,0,0,0-.12-.31A1.3,1.3,0,0,1,66,9.25a3.44,3.44,0,0,1,1-1.29l.48-.28c.17,0,.35-.16.51,0s0,.28,0,.4a.5.5,0,0,0,.15.63.6.6,0,0,0,.72,0,.83.83,0,0,0,.4-.58c0-.12-.14-.14-.2-.2A.67.67,0,0,1,68.9,7a.71.71,0,0,1,.41-.31l.84-.26c.25,0,.3,0,.25.23a.85.85,0,0,1-.15.37c-.17.32-.35.67-.13,1a1.29,1.29,0,0,0,1.1.52A2.75,2.75,0,0,0,72,8.38a.56.56,0,0,1,.58.18,1.3,1.3,0,0,1,.2.79c0,.1-.15.14-.25.19a8.64,8.64,0,0,1-2.41.62,3.37,3.37,0,0,0-1.93.68,1.63,1.63,0,0,1-.47.25,2.87,2.87,0,0,0-1.67,2,.47.47,0,0,0,.13.5,1.65,1.65,0,0,0,1.28.57,6.24,6.24,0,0,0,1.81-.3,11.23,11.23,0,0,1,1.42-.32c.35,0,.57,0,.65.44s.27,1.06.41,1.59a.73.73,0,0,1-.42.93l-.09,0a5.13,5.13,0,0,1-.89.28,14.34,14.34,0,0,0-1.91.89c-.45.17-.93.28-1.39.49a1.53,1.53,0,0,1-1.32-.09,2.06,2.06,0,0,0-1-.17.77.77,0,0,0-.79.76.73.73,0,0,0,0,.25,1.54,1.54,0,0,0,.11.69c.12.23,0,.33-.28.23-.69-.33-1.48-.1-2.16-.47a1.88,1.88,0,0,0-1.28,0,4.79,4.79,0,0,1-1,.2c-.27,0-.54,0-.47-.47a1.81,1.81,0,0,0-.19-1,.64.64,0,0,0-.79-.43h0c-1.34.44-2.71.79-4,1.36a2.18,2.18,0,0,0-1.1.86.72.72,0,0,1-.44.3,8,8,0,0,1-1.68.42c-.18,0-.28.15-.37.26q-.42.55-.78,1.14c-.14.2-.22.27-.46.19a31.88,31.88,0,0,0-6.4-1.59,31.25,31.25,0,0,0-3.75-.31c-.87,0-.87,0-.54-.77A33.53,33.53,0,0,1,49,6.12,31.4,31.4,0,0,1,61.62.65,37.13,37.13,0,0,1,66.45,0h5a3.45,3.45,0,0,0,1.19.15,34.63,34.63,0,0,1,12,3.2A28.31,28.31,0,0,1,98.77,17.66c.12.29.22.59.36.87s0,.32-.21.39a58.78,58.78,0,0,0-8.12,3.15A65.41,65.41,0,0,0,84,25.71a4.75,4.75,0,0,1-1,.48,3.68,3.68,0,0,0-1.91,1.11.64.64,0,0,1-.87-.1c0-.15.08-.17.17-.22s.23,0,.23-.18-.15-.17-.25-.22c-.77-.39-1.56-.74-2.31-1.14-.49-.27-1.08-.47-1.23-1.16,0-.22-.32-.28-.5-.38A2,2,0,0,1,75,22.22a1.27,1.27,0,0,0-.92-1.12.76.76,0,0,1-.59-.5A2.49,2.49,0,0,0,72,19a3.36,3.36,0,0,1-.89-.59c0-.08-.17-.15-.12-.28s.17-.13.3-.15a1.09,1.09,0,0,1,.36,0,.49.49,0,0,0,.65-.14.19.19,0,0,1,.3-.11c.15.08.12.2,0,.32s0,.31.15.4a4,4,0,0,0,.65.42,2,2,0,0,1,1,1,1.48,1.48,0,0,0,.67.64,1.66,1.66,0,0,1,.84.75c0,.12.18.2.28.28a8,8,0,0,0,1,.61A2.44,2.44,0,0,1,78.7,24a1,1,0,0,0,.65.86.83.83,0,0,1,.47.45c.17.37.44.35.74.22a1.59,1.59,0,0,0,.72-.66,2.53,2.53,0,0,1,1.3-1,3,3,0,0,0,1.55-1.28,6.33,6.33,0,0,1,.92-1.09A7.24,7.24,0,0,0,87,18a.71.71,0,0,0-.27-.62,4,4,0,0,0-1.4-.95c-.34-.17-.72-.24-1-.59s-.22,0-.28,0-.31.45-.46.69a3.11,3.11,0,0,1-.55.65c-.32.29-.59.22-.77-.18a1.84,1.84,0,0,0-.18-.49c-.07-.17-.1-.18-.22-.15s-.07.25-.07.37.14.42-.1.47a.53.53,0,0,1-.54-.35,1.67,1.67,0,0,0-.8-.73,1.32,1.32,0,0,1-.77-1.07c0-.48.1-.62.55-.47s.85.31,1.26.49a3.73,3.73,0,0,0,2.68.33,1.74,1.74,0,0,1,1.06,0,2.31,2.31,0,0,0,1.35-.1c.84-.23,1.68-.6,2.5-.75a2.29,2.29,0,0,1,1.32.15,1.63,1.63,0,0,0,1.11,0,.58.58,0,0,1,.79.24.51.51,0,0,1,.06.38c0,.34.49.6.84.47s.59-.65.92-1a.42.42,0,0,0-.13-.3A27.24,27.24,0,0,0,89.24,9.3,29.37,29.37,0,0,0,74.67,2.6a33,33,0,0,0-14.36.8c-.23,0-.33.15-.27.42a1.16,1.16,0,0,1-.6,1.29,19.88,19.88,0,0,1-3.6,1.16.68.68,0,0,1-.77,0c-.19-.23,0-.52,0-.77V5.45Z"/><path class="cls-1" d="M53.53,55.79c0-.17-.17-.22-.27-.3a72.47,72.47,0,0,0-17-10.06,57.22,57.22,0,0,0-13-3.53,70.63,70.63,0,0,0-13-.78,54,54,0,0,0-6.84.62.29.29,0,0,0-.13,0c4.36-2.44,8.38-5.29,12.65-8s8.38-5.38,12.6-8.11a4.94,4.94,0,0,1,2.06-.52,39.81,39.81,0,0,1,7.85-.71,39.48,39.48,0,0,1,23.19,7,38.49,38.49,0,0,1,7.91,7.49c0,.1-.15.2-.23.28a41,41,0,0,0-5.7,6.71A31.93,31.93,0,0,0,59.91,53a.43.43,0,0,1-.5.35h-.66a9.68,9.68,0,0,0-3.93,1.34C54.33,55,54,55.49,53.53,55.79Z"/><path class="cls-2" d="M53.53,55.79c.47-.3.8-.76,1.29-1.06a9.83,9.83,0,0,1,3.93-1.34h.66a.43.43,0,0,0,.5-.35A31.93,31.93,0,0,1,63.6,46a41,41,0,0,1,5.7-6.71,3.45,3.45,0,0,0,.23-.28c1-.82,2-1.68,3-2.48a64.53,64.53,0,0,1,10.65-6.8,110.42,110.42,0,0,1,21.94-8.27h.2a.64.64,0,0,1-.15.42c-1,1.91-2.09,3.82-3.12,5.73a.58.58,0,0,1-.48.36A73.85,73.85,0,0,0,85.1,32.48a54.52,54.52,0,0,0-14.31,8.23,35.53,35.53,0,0,0-9.5,11.56c-.17.3-.31.6-.46.9s-.1.26.12.27l.94.14c.15,0,.2-.09.28-.17A52.66,52.66,0,0,1,78.11,41.16,87.44,87.44,0,0,1,98.64,33.6a124.24,124.24,0,0,1,13.12-2.33c3.42-.43,6.85-.75,10.29-.94l2.2-.11-2.08,1.86-4.26,3.82a.63.63,0,0,1-.47.2,83.21,83.21,0,0,0-12.23.28,85,85,0,0,0-18.62,3.69,61,61,0,0,0-16.44,8,48.3,48.3,0,0,0-6.52,5.6.46.46,0,0,0-.17.25l1.09.38a.53.53,0,0,0,.41-.11,53.05,53.05,0,0,1,8.79-5.38,61.35,61.35,0,0,1,16.19-5.3,70.17,70.17,0,0,1,10.22-1.09,76.77,76.77,0,0,1,10.06.34l3.18.35c0,.17-.18.17-.28.22l-4.64,2.09a.87.87,0,0,1-.47.1,73.21,73.21,0,0,0-8.38,0,83.07,83.07,0,0,0-11,1.18A66,66,0,0,0,66,54.6l-.32.2,1,.54c.55.31,1.09.62,1.67,1a.76.76,0,0,0,.69,0,75.21,75.21,0,0,1,12.87-2.57,100.71,100.71,0,0,1,14.53-.42c2,0,4,.21,6,.36v.13H99.19c-4.29,0-8.58.24-12.85.59a72.9,72.9,0,0,0-16.19,2.85c-3.35,1.07-6.7,2.21-10.05,3.57a1.21,1.21,0,0,1-.88,0c-2.34-.93-4.69-1.84-7-2.72a81.46,81.46,0,0,0-9.94-2.8,116.35,116.35,0,0,0-11.58-2c-2.63-.31-5.25-.57-7.9-.77C19,52.2,15.22,52,11.5,52c-3-.1-6-.2-8.95-.25H0v-.1c1.11-.09,2.21-.19,3.35-.25,4.56-.29,9.13-.47,13.73-.44,4,0,8,.22,12,.6a110.91,110.91,0,0,1,23.58,4.8C53.17,56.43,53.24,56,53.53,55.79Z"/></g></g></g></g></svg>