<svg xmlns="http://www.w3.org/2000/svg" viewBox="0 0 99.42 99.42"><defs><style>.cls-1{fill:#adadad;}</style></defs><g id="Layer_2" data-name="Layer 2"><g id="Layer_1-2" data-name="Layer 1"><path class="cls-1" d="M51.65,84.66a1.94,1.94,0,1,1-1.94-1.94,1.94,1.94,0,0,1,1.94,1.94Z"/><path class="cls-1" d="M81.56,26,50.49,12.4a1.93,1.93,0,0,0-1.56,0L17.88,26a2,2,0,0,0-1.18,1.79v12a5.83,5.83,0,0,0-3.88,5.49V53A1.94,1.94,0,0,0,14.76,55h7.76A1.94,1.94,0,0,0,24.47,53V45.24a5.84,5.84,0,0,0-3.89-5.49v-9l11.65,5.09v13.3a2,2,0,0,0,1.16,1.77c.37.17,9.21,4.05,16.32,4.05S65.66,51.07,66,50.9a2,2,0,0,0,1.16-1.77V35.83l14.37-6.28a1.95,1.95,0,0,0,0-3.56Zm-61,25.08H16.7V45.24a1.94,1.94,0,0,1,3.88,0ZM63.3,47.83c-2.52,1-8.68,3.24-13.59,3.24s-11.07-2.24-13.59-3.24V37.53l12.81,5.61a1.93,1.93,0,0,0,1.56,0L63.3,37.53ZM49.71,39.24,23.49,27.77,49.71,16.29,75.93,27.77,49.71,39.24Z"/><path class="cls-1" d="M89.71,39.42H73a1.94,1.94,0,1,0,0,3.88h16.7a1.94,1.94,0,1,0,0-3.88Z"/><path class="cls-1" d="M89.71,47.18H73a1.95,1.95,0,0,0,0,3.89h16.7a1.95,1.95,0,0,0,0-3.89Z"/><path class="cls-1" d="M51.65,1.94A1.94,1.94,0,1,1,49.71,0a1.94,1.94,0,0,1,1.94,1.94Z"/><path class="cls-1" d="M97.48,0h-39a1.94,1.94,0,0,0,0,3.88H95.53V63.3H3.88V3.88H41A1.94,1.94,0,0,0,41,0h-39A1.94,1.94,0,0,0,0,1.94v75a1.94,1.94,0,0,0,1.94,2H39.6L36.45,95.53H30.29a1.95,1.95,0,0,0,0,3.89H69.13a1.95,1.95,0,0,0,0-3.89H63L59.82,78.84H97.48a1.94,1.94,0,0,0,1.94-2V1.94A1.94,1.94,0,0,0,97.48,0ZM40.4,95.53l3.15-16.69H55.87L59,95.53ZM95.53,75H3.88V67.19H95.53Z"/></g></g></svg>