<svg xmlns="http://www.w3.org/2000/svg" xmlns:xlink="http://www.w3.org/1999/xlink" viewBox="0 0 125.45 45.03"><defs><style>.cls-1{fill:none;}.cls-2{fill:#919191;}.cls-3{fill:#009245;}.cls-4{clip-path:url(#clip-path);}.cls-5{fill:#0e9a42;}.cls-6{fill:#9a9694;}.cls-7{fill:#d8b13d;}</style><clipPath id="clip-path" transform="translate(0 -0.04)"><polyline class="cls-1" points="125.45 53.02 125.45 0 71.59 0 71.59 53.02"/></clipPath></defs><g id="Layer_2" data-name="Layer 2"><g id="Layer_1-2" data-name="Layer 1"><path class="cls-2" d="M31.89,20.05a4.94,4.94,0,0,1-3.44-1.11,4,4,0,0,1-1.23-3.13,4.39,4.39,0,0,1,1.36-3.42,5.25,5.25,0,0,1,3.67-1.25h1.21V10H35v8.63h2.1c.06,0,.09,0,.09.07V20a.08.08,0,0,1-.09.09Zm1.57-1.43V12.57H32.31a3.6,3.6,0,0,0-2.56.85,3.08,3.08,0,0,0-.9,2.37,2.72,2.72,0,0,0,.78,2.1,3.11,3.11,0,0,0,2.22.73ZM30.93,8.29A1.11,1.11,0,0,1,30.2,8a1.06,1.06,0,0,1-.3-.84,1.08,1.08,0,0,1,.3-.85,1.11,1.11,0,0,1,.73-.26,1.05,1.05,0,0,1,.75.28,1.17,1.17,0,0,1,.28.83,1.09,1.09,0,0,1-.28.81A1,1,0,0,1,30.93,8.29Zm3.18,0A1,1,0,0,1,33.36,8a1.09,1.09,0,0,1-.28-.81,1.14,1.14,0,0,1,.27-.82,1,1,0,0,1,.76-.29,1,1,0,0,1,.76.3,1.17,1.17,0,0,1,.27.81,1.16,1.16,0,0,1-.27.8A1,1,0,0,1,34.11,8.29Z" transform="translate(0 -0.04)"/><path class="cls-2" d="M37,20.05a.08.08,0,0,1-.09-.09V18.69c0-.05,0-.07.09-.07h2.24V11.69h1.56v3.4A7.72,7.72,0,0,1,42.91,12,4.56,4.56,0,0,1,45.84,11,4.08,4.08,0,0,1,49,12.09a5,5,0,0,1,1.07,3.53v3h2.42c.07,0,.1,0,.1.07V20c0,.06,0,.09-.1.09Zm11.54-1.43V15.7a3.58,3.58,0,0,0-.74-2.49,2.89,2.89,0,0,0-2.24-.8c-1.89,0-3.47,1.57-4.76,4.7v1.51Z" transform="translate(0 -0.04)"/><path class="cls-2" d="M52.29,20.05A.08.08,0,0,1,52.2,20V18.69c0-.05,0-.07.09-.07h2.42V11.14h1.64v7.48h2.39c.06,0,.09,0,.09.07V20a.08.08,0,0,1-.09.09ZM55.47,9.39a1,1,0,0,1-.76-.28,1.18,1.18,0,0,1-.27-.82,1.16,1.16,0,0,1,.27-.82,1,1,0,0,1,.76-.28,1,1,0,0,1,.76.3,1.14,1.14,0,0,1,.27.8,1.16,1.16,0,0,1-.27.8A1,1,0,0,1,55.47,9.39Z" transform="translate(0 -0.04)"/><path class="cls-2" d="M58.55,20.05a.08.08,0,0,1-.09-.09V18.69c0-.05,0-.07.09-.07h2.28a9,9,0,0,1-.68-3.14,6.2,6.2,0,0,1,.67-2.93,5.33,5.33,0,0,1,1.54-.9,5,5,0,0,1,1.81-.33,3.91,3.91,0,0,1,2,.51,3.39,3.39,0,0,1,1.34,1.44A4.69,4.69,0,0,1,68,15.39a5.51,5.51,0,0,1-.52,2.49A3.73,3.73,0,0,1,66,19.49a4.2,4.2,0,0,1-2.19.56Zm3.25-4.89A9.37,9.37,0,0,0,62,16.84a10.16,10.16,0,0,0,.55,1.78h1.3a2.26,2.26,0,0,0,1.89-.84,3.87,3.87,0,0,0,.65-2.41,2.8,2.8,0,0,0-.63-1.89,2,2,0,0,0-1.54-.74A3.2,3.2,0,0,0,63,13a3.55,3.55,0,0,0-1,.54,2.47,2.47,0,0,0-.19.79A8,8,0,0,0,61.8,15.16Z" transform="translate(0 -0.04)"/><path class="cls-3" d="M0,38.6a5.06,5.06,0,0,0,.69-.13l1.2-.22a3,3,0,0,1-1-1.18,4,4,0,0,1-.38-1.73,4.15,4.15,0,0,1,.55-2.2,3.55,3.55,0,0,1,1.54-1.4,5.18,5.18,0,0,1,2.32-.49,5,5,0,0,1,2.57.62l-.46,1.59A4.4,4.4,0,0,0,5,32.91a2.5,2.5,0,0,0-1.88.66,2.59,2.59,0,0,0-.65,1.9,3,3,0,0,0,.37,1.45,2.27,2.27,0,0,0,1,.95l.47,0c2.15-.28,3.46-.42,3.94-.42v1.73a40.15,40.15,0,0,0-4.09.39c-2,.26-3.41.47-4.11.62Z" transform="translate(0 -0.04)"/><path class="cls-3" d="M11.18,23.79h1.89v14.5h2.81q.12,0,.12.09v1.47c0,.07,0,.11-.12.11h-4.7Z" transform="translate(0 -0.04)"/><path class="cls-3" d="M19.52,38.29c.07,0,.11,0,.11.09v1.47a.1.1,0,0,1-.11.11H15.67c-.07,0-.1,0-.1-.11V38.38c0-.06,0-.09.1-.09Z" transform="translate(0 -0.04)"/><path class="cls-3" d="M23.16,38.29c.07,0,.11,0,.11.09v1.47a.1.1,0,0,1-.11.11H19.31c-.07,0-.1,0-.1-.11V38.38c0-.06,0-.09.1-.09Z" transform="translate(0 -0.04)"/><path class="cls-3" d="M26.79,38.29q.12,0,.12.09v1.47c0,.07,0,.11-.12.11H23a.1.1,0,0,1-.11-.11V38.38c0-.06,0-.09.11-.09Z" transform="translate(0 -0.04)"/><path class="cls-3" d="M30.43,38.29q.12,0,.12.09v1.47c0,.07,0,.11-.12.11H26.59a.1.1,0,0,1-.11-.11V38.38c0-.06,0-.09.11-.09Z" transform="translate(0 -0.04)"/><path class="cls-3" d="M30.22,40c-.07,0-.1,0-.1-.11V38.38c0-.06,0-.09.1-.09h3.24a4.1,4.1,0,0,1-.83-1.48,5.85,5.85,0,0,1-.28-1.73,5.17,5.17,0,0,1,1.58-4,6,6,0,0,1,4.26-1.45H41v8.65h2.26a.1.1,0,0,1,.09.06v1.52c0,.06,0,.09-.1.09Zm8.94-1.67v-7h-.91a4.09,4.09,0,0,0-3,1,3.68,3.68,0,0,0-1,2.79q0,3.21,2.91,3.21ZM35.63,27.61a1.26,1.26,0,0,1-.85-.3,1.24,1.24,0,0,1-.35-1,1.13,1.13,0,0,1,1.2-1.28,1.14,1.14,0,0,1,.86.33,1.29,1.29,0,0,1,.32.95,1.33,1.33,0,0,1-.31,1A1.16,1.16,0,0,1,35.63,27.61Zm3.68,0a1.18,1.18,0,0,1-.88-.33,1.33,1.33,0,0,1-.32-1,1.3,1.3,0,0,1,.32-.94,1.29,1.29,0,0,1,1.76,0,1.55,1.55,0,0,1,0,1.86A1.13,1.13,0,0,1,39.31,27.61Z" transform="translate(0 -0.04)"/><path class="cls-3" d="M46.86,38.29q.12,0,.12.09v1.47c0,.07,0,.11-.12.11H43a.1.1,0,0,1-.11-.11V38.38c0-.06,0-.09.11-.09Z" transform="translate(0 -0.04)"/><path class="cls-3" d="M46.66,40a.1.1,0,0,1-.11-.11V38.38c0-.06,0-.09.11-.09h4.08V29.64h1.89V40Zm3.06-12.35a1.28,1.28,0,0,1-.85-.3,1.24,1.24,0,0,1-.34-1,1.25,1.25,0,0,1,.34-1,1.28,1.28,0,0,1,.85-.3,1.14,1.14,0,0,1,.86.33,1.29,1.29,0,0,1,.33.95,1.33,1.33,0,0,1-.32,1A1.15,1.15,0,0,1,49.72,27.61Zm3.68,0a1.15,1.15,0,0,1-.87-.33,1.29,1.29,0,0,1-.32-1,1.3,1.3,0,0,1,.31-.94,1.14,1.14,0,0,1,.88-.34,1.12,1.12,0,0,1,.88.35,1.51,1.51,0,0,1,0,1.86A1.12,1.12,0,0,1,53.4,27.61Z" transform="translate(0 -0.04)"/><path class="cls-3" d="M56,45.07a4.72,4.72,0,0,1-2.17-.6L54.42,43a3.82,3.82,0,0,0,.85.3,3.35,3.35,0,0,0,.73.07,1.72,1.72,0,0,0,1.5-.78A3.56,3.56,0,0,0,58,40.57V29.64h1.79V40.47a5.26,5.26,0,0,1-1,3.37A3.39,3.39,0,0,1,56,45.07Z" transform="translate(0 -0.04)"/><path class="cls-3" d="M63.77,23.79h1.89V40H63.77Z" transform="translate(0 -0.04)"/><g class="cls-4"><path class="cls-5" d="M108.38,44.42h12a5,5,0,0,0,5-5V11.51a5,5,0,0,0-5-5H118a.79.79,0,0,0,0,1.58h2.43a3.46,3.46,0,0,1,3.45,3.45V38.59H73.18V11.51a3.45,3.45,0,0,1,3.44-3.45H79a.79.79,0,1,0,0-1.58H76.62a5,5,0,0,0-5,5V39.39a5,5,0,0,0,5,5h12m1.58,0h11.54a.8.8,0,0,0,0-1.59H76.62a3.45,3.45,0,0,1-3.35-2.65h50.51a3.45,3.45,0,0,1-3.36,2.65H105.16a.8.8,0,0,0,0,1.59h1.63" transform="translate(0 -0.04)"/><path class="cls-6" d="M84.81,8l3,1.48v9.36a1.91,1.91,0,0,0,1.62,1.87l.85.12a56.2,56.2,0,0,0,8.29.61,56.17,56.17,0,0,0,8.28-.61l.85-.12a1.9,1.9,0,0,0,1.62-1.87V9.41l1.8-.88V23.08A3,3,0,0,0,108.92,26v2a1.44,1.44,0,0,0,1.43,1.44h3.19A1.45,1.45,0,0,0,115,28V26a3,3,0,0,0-2.24-2.92V7.27a.78.78,0,0,0-.45-.71L99.15.17a1.4,1.4,0,0,0-1.2,0L84.81,6.56a.79.79,0,0,0,0,1.42Zm28.58,18v1.81H110.5V26a1.45,1.45,0,0,1,2.89,0ZM98.55,1.64l11.58,5.63L98.55,12.89l-3.12-1.51a.79.79,0,0,0-.69,1.42L98,14.36a1.29,1.29,0,0,0,.6.14,1.26,1.26,0,0,0,.6-.14l8.63-4.19v8.65a.31.31,0,0,1-.27.3l-.85.13a55.75,55.75,0,0,1-16.11,0l-.85-.13a.31.31,0,0,1-.27-.3V10.23l2.26,1.09a.79.79,0,1,0,.69-1.42L87,7.27Z" transform="translate(0 -0.04)"/></g><path class="cls-7" d="M116.72,16.94h.82a.78.78,0,0,1,.77.77v16a.77.77,0,0,1-.77.77H100.08a.8.8,0,1,0,0,1.59h17.46a2.36,2.36,0,0,0,2.35-2.36v-16a2.35,2.35,0,0,0-2.35-2.35h-.82a.79.79,0,1,0,0,1.58Z" transform="translate(0 -0.04)"/><path class="cls-7" d="M79.67,16.94h5.49a.79.79,0,0,0,0-1.58H79.67a2.35,2.35,0,0,0-2.35,2.35v16a2.36,2.36,0,0,0,2.35,2.36H90.13a.8.8,0,0,0,0-1.59H79.67a.77.77,0,0,1-.77-.77v-16a.78.78,0,0,1,.77-.77Z" transform="translate(0 -0.04)"/><path class="cls-5" d="M104.76,23.18a2.25,2.25,0,0,0-3.16.28l-6.67,8L92.64,29.1a2.25,2.25,0,0,0-3.22,3.13l4,4.13a2.23,2.23,0,0,0,1.61.68h.09a2.2,2.2,0,0,0,1.63-.8l8.27-9.9a2.24,2.24,0,0,0-.28-3.16Zm-.68,2.35-8.27,9.91a1,1,0,0,1-.72.35,1,1,0,0,1-.75-.3l-4-4.13a1,1,0,0,1-.28-.71,1,1,0,0,1,1-1h0a1,1,0,0,1,.69.3l2.77,2.85A.68.68,0,0,0,95,33a.63.63,0,0,0,.46-.23l7.12-8.52a1,1,0,0,1,.67-.36,1,1,0,0,1,.73.23,1,1,0,0,1,.12,1.39Z" transform="translate(0 -0.04)"/></g></g></svg>