<svg xmlns="http://www.w3.org/2000/svg" xmlns:xlink="http://www.w3.org/1999/xlink" viewBox="0 0 122.65 44.03"><defs><style>.cls-1{fill:none;}.cls-2{fill:#919191;}.cls-3{fill:#5d5957;}.cls-4{clip-path:url(#clip-path);}.cls-5{fill:#0e9a42;}.cls-6{fill:#9a9694;}.cls-7{fill:#d8b13d;}</style><clipPath id="clip-path" transform="translate(0 -0.04)"><polyline class="cls-1" points="122.65 51.83 122.65 0 69.99 0 69.99 51.83"/></clipPath></defs><g id="Layer_2" data-name="Layer 2"><g id="Layer_1-2" data-name="Layer 1"><path class="cls-2" d="M31.17,19.61a4.81,4.81,0,0,1-3.36-1.1,3.9,3.9,0,0,1-1.2-3.05,4.35,4.35,0,0,1,1.33-3.35,5.14,5.14,0,0,1,3.59-1.22h1.19V9.76h1.53V18.2h2c.05,0,.08,0,.08.07v1.25c0,.06,0,.09-.08.09Zm1.55-1.41V12.29H31.58a3.52,3.52,0,0,0-2.49.83,3,3,0,0,0-.88,2.32,2.66,2.66,0,0,0,.76,2,3.08,3.08,0,0,0,2.17.71ZM30.24,8.1a1,1,0,0,1-.71-.25,1,1,0,0,1-.3-.82,1,1,0,0,1,1-1.08,1,1,0,0,1,.73.27,1.12,1.12,0,0,1,.27.81,1.12,1.12,0,0,1-.26.79A1,1,0,0,1,30.24,8.1Zm3.11,0a1,1,0,0,1-.74-.28A1.08,1.08,0,0,1,32.34,7a1.09,1.09,0,0,1,.27-.8A1,1,0,0,1,33.35,6a.92.92,0,0,1,.74.29,1.13,1.13,0,0,1,.27.79,1.12,1.12,0,0,1-.27.78A.92.92,0,0,1,33.35,8.1Z" transform="translate(0 -0.04)"/><path class="cls-2" d="M36.12,19.61a.08.08,0,0,1-.09-.09V18.27c0-.05,0-.07.09-.07h2.19V11.43h1.53v3.32a7.52,7.52,0,0,1,2.11-3,4.48,4.48,0,0,1,2.86-1,4,4,0,0,1,3.08,1.11,4.89,4.89,0,0,1,1,3.45V18.2H51.3c.06,0,.09,0,.09.07v1.25a.08.08,0,0,1-.09.09ZM47.4,18.2V15.35a3.5,3.5,0,0,0-.72-2.44,2.84,2.84,0,0,0-2.19-.78q-2.76,0-4.65,4.6V18.2Z" transform="translate(0 -0.04)"/><path class="cls-2" d="M51.12,19.61a.08.08,0,0,1-.09-.09V18.27c0-.05,0-.07.09-.07h2.37V10.89h1.6V18.2h2.34c.06,0,.09,0,.09.07v1.25a.08.08,0,0,1-.09.09ZM54.23,9.18a1,1,0,0,1-.74-.28,1.11,1.11,0,0,1-.27-.8,1.08,1.08,0,0,1,.27-.79A.94.94,0,0,1,54.23,7a.92.92,0,0,1,.74.29,1.1,1.1,0,0,1,.27.78,1.13,1.13,0,0,1-.27.79A.92.92,0,0,1,54.23,9.18Z" transform="translate(0 -0.04)"/><path class="cls-2" d="M57.25,19.61a.08.08,0,0,1-.09-.09V18.27c0-.05,0-.07.09-.07h2.22a8.81,8.81,0,0,1-.66-3.07,6.06,6.06,0,0,1,.65-2.86,5.2,5.2,0,0,1,1.5-.88,5.1,5.1,0,0,1,1.78-.32,3.75,3.75,0,0,1,2,.5A3.29,3.29,0,0,1,66,13,4.63,4.63,0,0,1,66.47,15,5.42,5.42,0,0,1,66,17.48a3.64,3.64,0,0,1-1.45,1.58,4.17,4.17,0,0,1-2.13.55Zm3.17-4.79a8.93,8.93,0,0,0,.15,1.64,8.57,8.57,0,0,0,.54,1.74h1.27a2.19,2.19,0,0,0,1.84-.82A3.72,3.72,0,0,0,64.86,15a2.77,2.77,0,0,0-.62-1.86,1.89,1.89,0,0,0-1.5-.71,3.08,3.08,0,0,0-1.12.2,3.55,3.55,0,0,0-1,.53,2.61,2.61,0,0,0-.18.77A7.64,7.64,0,0,0,60.42,14.82Z" transform="translate(0 -0.04)"/><path class="cls-3" d="M0,37.73a3.73,3.73,0,0,0,.67-.12l1.18-.21a2.87,2.87,0,0,1-1-1.16,3.84,3.84,0,0,1-.37-1.69,4.15,4.15,0,0,1,.53-2.15A3.43,3.43,0,0,1,2.57,31a5,5,0,0,1,2.26-.48,4.85,4.85,0,0,1,2.52.61l-.46,1.55a4.34,4.34,0,0,0-2-.54A2.49,2.49,0,0,0,3,32.81a2.55,2.55,0,0,0-.63,1.86,2.87,2.87,0,0,0,.36,1.43,2.21,2.21,0,0,0,1,.92L4.17,37c2.1-.27,3.38-.41,3.85-.41v1.69a38.52,38.52,0,0,0-4,.39c-2,.25-3.33.46-4,.61Z" transform="translate(0 -0.04)"/><path class="cls-3" d="M10.93,23.25h1.85V37.44h2.75c.07,0,.11,0,.11.08V39c0,.07,0,.1-.11.1h-4.6Z" transform="translate(0 -0.04)"/><path class="cls-3" d="M19.08,37.44c.08,0,.11,0,.11.08V39c0,.07,0,.1-.11.1H15.32c-.07,0-.1,0-.1-.1V37.52c0-.06,0-.08.1-.08Z" transform="translate(0 -0.04)"/><path class="cls-3" d="M22.64,37.44c.07,0,.11,0,.11.08V39c0,.07,0,.1-.11.1H18.88c-.07,0-.1,0-.1-.1V37.52c0-.06,0-.08.1-.08Z" transform="translate(0 -0.04)"/><path class="cls-3" d="M26.19,37.44c.08,0,.12,0,.12.08V39c0,.07,0,.1-.12.1H22.44c-.07,0-.11,0-.11-.1V37.52c0-.06,0-.08.11-.08Z" transform="translate(0 -0.04)"/><path class="cls-3" d="M29.75,37.44c.08,0,.11,0,.11.08V39c0,.07,0,.1-.11.1H26c-.07,0-.1,0-.1-.1V37.52c0-.06,0-.08.1-.08Z" transform="translate(0 -0.04)"/><path class="cls-3" d="M29.55,39.06c-.07,0-.1,0-.1-.1V37.52c0-.06,0-.08.1-.08h3.16a4,4,0,0,1-.8-1.46,5.24,5.24,0,0,1-.28-1.68,5,5,0,0,1,1.54-3.9A5.89,5.89,0,0,1,37.33,29h2.72v8.47h2.21a.11.11,0,0,1,.09.05V39c0,.06,0,.08-.1.08Zm8.74-1.62V30.59h-.9a4,4,0,0,0-2.88,1,3.57,3.57,0,0,0-1,2.73c0,2.09,1,3.14,2.85,3.14ZM34.83,27A1.27,1.27,0,0,1,34,26.7a1.24,1.24,0,0,1-.34-1,1.2,1.2,0,0,1,.34-.95,1.23,1.23,0,0,1,.83-.3,1.14,1.14,0,0,1,.84.32,1.53,1.53,0,0,1,0,1.86A1.15,1.15,0,0,1,34.83,27Zm3.6,0a1.13,1.13,0,0,1-.85-.32,1.52,1.52,0,0,1,0-1.85,1.27,1.27,0,0,1,1.72,0,1.49,1.49,0,0,1,0,1.82A1.08,1.08,0,0,1,38.43,27Z" transform="translate(0 -0.04)"/><path class="cls-3" d="M45.82,37.44c.07,0,.11,0,.11.08V39c0,.07,0,.1-.11.1H42.06c-.07,0-.11,0-.11-.1V37.52c0-.06,0-.08.11-.08Z" transform="translate(0 -0.04)"/><path class="cls-3" d="M45.61,39.06c-.07,0-.1,0-.1-.1V37.52c0-.06,0-.08.1-.08h4V29h1.85V39.06Zm3-12.07a1.27,1.27,0,0,1-.83-.29,1.21,1.21,0,0,1-.34-1,1.17,1.17,0,0,1,.34-.95,1.23,1.23,0,0,1,.83-.3,1.14,1.14,0,0,1,.84.32,1.3,1.3,0,0,1,.32.93,1.34,1.34,0,0,1-.31.93A1.15,1.15,0,0,1,48.61,27Zm3.6,0a1.17,1.17,0,0,1-.86-.32,1.29,1.29,0,0,1-.31-.93,1.25,1.25,0,0,1,.31-.92,1.27,1.27,0,0,1,1.72,0,1.49,1.49,0,0,1,0,1.82A1.08,1.08,0,0,1,52.21,27Z" transform="translate(0 -0.04)"/><path class="cls-3" d="M54.79,44.06a4.55,4.55,0,0,1-2.13-.59l.54-1.39a4,4,0,0,0,.84.29,3.11,3.11,0,0,0,.71.07,1.68,1.68,0,0,0,1.46-.77,3.44,3.44,0,0,0,.53-2V29H58.5V39.56a5.14,5.14,0,0,1-1,3.3A3.31,3.31,0,0,1,54.79,44.06Z" transform="translate(0 -0.04)"/><path class="cls-3" d="M62.35,23.25H64.2V39.06H62.35Z" transform="translate(0 -0.04)"/><g class="cls-4"><path class="cls-5" d="M106,43.42h11.78a4.92,4.92,0,0,0,4.92-4.91V11.25a4.93,4.93,0,0,0-4.92-4.92h-2.37a.78.78,0,1,0,0,1.55h2.37a3.37,3.37,0,0,1,3.37,3.37V37.73H71.54V11.25a3.37,3.37,0,0,1,3.37-3.37h2.27a.78.78,0,0,0,0-1.55H74.91A4.93,4.93,0,0,0,70,11.25V38.51a4.92,4.92,0,0,0,4.92,4.91H86.69m1.55,0H99.51a.77.77,0,0,0,0-1.54H74.91a3.38,3.38,0,0,1-3.28-2.6H121a3.38,3.38,0,0,1-3.28,2.6H102.81a.77.77,0,1,0,0,1.54h1.59" transform="translate(0 -0.04)"/><path class="cls-6" d="M82.92,7.8l3,1.45V18.4a1.87,1.87,0,0,0,1.58,1.83l.83.12a56.39,56.39,0,0,0,8.1.59,56.28,56.28,0,0,0,8.1-.59l.84-.12a1.86,1.86,0,0,0,1.57-1.83V9.19l1.76-.85V22.57a3,3,0,0,0-2.19,2.85v1.92a1.41,1.41,0,0,0,1.41,1.4H111a1.41,1.41,0,0,0,1.41-1.4V25.42a3,3,0,0,0-2.19-2.85V7.11a.77.77,0,0,0-.44-.7L96.93.17a1.33,1.33,0,0,0-1.17,0L82.92,6.41a.77.77,0,0,0,0,1.39Zm27.94,17.62v1.77H108V25.42a1.42,1.42,0,0,1,2.83,0ZM96.35,1.61l11.32,5.5-11.32,5.5-3-1.48a.77.77,0,1,0-.67,1.39L95.76,14a1.38,1.38,0,0,0,.59.14,1.3,1.3,0,0,0,.58-.14L105.37,10V18.4a.29.29,0,0,1-.26.29l-.83.13a54.75,54.75,0,0,1-15.76,0l-.83-.13a.29.29,0,0,1-.26-.29V10l2.21,1.07a.77.77,0,1,0,.68-1.39L85,7.11Z" transform="translate(0 -0.04)"/></g><path class="cls-7" d="M114.11,16.56h.8a.76.76,0,0,1,.76.76V33a.76.76,0,0,1-.76.76H97.84a.78.78,0,1,0,0,1.55h17.07a2.31,2.31,0,0,0,2.3-2.31V17.32a2.31,2.31,0,0,0-2.3-2.31h-.8a.78.78,0,0,0,0,1.55Z" transform="translate(0 -0.04)"/><path class="cls-7" d="M77.89,16.56h5.36a.78.78,0,1,0,0-1.55H77.89a2.31,2.31,0,0,0-2.3,2.31V33a2.31,2.31,0,0,0,2.3,2.31H88.11a.78.78,0,1,0,0-1.55H77.89a.75.75,0,0,1-.75-.76V17.32a.75.75,0,0,1,.75-.76Z" transform="translate(0 -0.04)"/><path class="cls-5" d="M102.42,22.66a2.19,2.19,0,0,0-3.09.28L92.8,30.75l-2.23-2.3A2.19,2.19,0,0,0,89,27.79a2.16,2.16,0,0,0-1.56.62A2.18,2.18,0,0,0,86.8,30a2.24,2.24,0,0,0,.62,1.56l3.93,4a2.23,2.23,0,0,0,1.58.67H93a2.21,2.21,0,0,0,1.6-.79l8.09-9.68a2.2,2.2,0,0,0-.28-3.09Zm-.66,2.3-8.09,9.68A1,1,0,0,1,93,35a1,1,0,0,1-.73-.29l-3.93-4A1,1,0,0,1,88,30a1,1,0,0,1,1-1h0a1,1,0,0,1,.68.3l2.71,2.78a.62.62,0,0,0,.46.19.65.65,0,0,0,.45-.22l7-8.34a1,1,0,0,1,.66-.34,1,1,0,0,1,.7.22,1,1,0,0,1,.13,1.36Z" transform="translate(0 -0.04)"/></g></g></svg>