<svg xmlns="http://www.w3.org/2000/svg" xmlns:xlink="http://www.w3.org/1999/xlink" viewBox="0 0 85.16 48.93"><defs><style>.cls-1,.cls-2,.cls-3{fill:none;}.cls-1{clip-rule:evenodd;}.cls-3,.cls-6,.cls-7{fill-rule:evenodd;}.cls-4,.cls-7{fill:#0f5087;}.cls-5,.cls-6{fill:#ae9b39;}.cls-8{fill:#006096;}.cls-9{clip-path:url(#clip-path);}.cls-10{clip-path:url(#clip-path-2);}.cls-11{fill:#fff;}.cls-12{fill:#d6ca9b;}.cls-13{fill:#cebf85;}.cls-14{fill:#bead5f;}</style><clipPath id="clip-path" transform="translate(0 0)"><path class="cls-1" d="M53.51,2.75c-1.94-4-7.85-3.57-13.21,1-.47.39-.86.78-1.25,1.17a5.47,5.47,0,0,1,.7-.62c4.67-4,9.72-4.43,11.43-.93,1.09,2.25.39,5.67-1.55,8.94-1.17,1.47-3,2.09-2.72.15.07-.47.77-3.65,1.39-6.22a13.81,13.81,0,0,0-3.42-.78,6,6,0,0,0-5,2,7.81,7.81,0,0,0-2.33,4.9A3,3,0,0,0,38.35,15,3.42,3.42,0,0,0,41,16a5.08,5.08,0,0,0,3.34-1.32A4.06,4.06,0,0,0,47.22,16a5.21,5.21,0,0,0,3.23-1.26l-.42.14.42-.14A6.47,6.47,0,0,0,51.88,13c2.18-3.74,2.95-7.7,1.63-10.27m-8.94,8.17a4.32,4.32,0,0,1-1.09,1.86,2.32,2.32,0,0,1-1.78.78c-.78,0-1.09-.47-1-1.4A5.44,5.44,0,0,1,42,9.05,3.32,3.32,0,0,1,44.57,7.5a1.32,1.32,0,0,1,.94.38c-.39,1.25-.7,2.26-.94,3"/></clipPath><clipPath id="clip-path-2" transform="translate(0 0)"><rect class="cls-2" x="-26.86" y="-77.04" width="139.12" height="196.79"/></clipPath></defs><g id="Layer_2" data-name="Layer 2"><g id="Layer_1-2" data-name="Layer 1"><path class="cls-4" d="M7.08,38.19a1.23,1.23,0,0,1-1.33,1.32h-4A1.55,1.55,0,0,1,.46,39,2.08,2.08,0,0,1,0,37.56a2.54,2.54,0,0,1,.35-1.28h.81a2,2,0,0,0-.43,1.1c0,.87.36,1.31,1.08,1.31H5.52c.45,0,.67-.23.67-.71v-.89L6,35.93l1.06-.24v2.5M3.39,35.72a.55.55,0,0,1-.54.55.54.54,0,0,1-.55-.55.55.55,0,0,1,.55-.55A.54.54,0,0,1,3.39,35.72Zm1.45,0a.55.55,0,0,1-.54.55.53.53,0,0,1-.55-.55.55.55,0,1,1,1.09,0Z" transform="translate(0 0)"/><path class="cls-4" d="M10.27,39.51h-.7a1.25,1.25,0,0,1-1.34-1.35V35.09l-.15-1.15,1.06-.25V38c0,.5.21.74.65.74h.48v.82" transform="translate(0 0)"/><path class="cls-4" d="M14.64,35.72l-.08.94v1.26c0,1-.68,1.59-2,1.59H10v-.82h1.37a1.86,1.86,0,0,1-.27-1,2.07,2.07,0,0,1,2.23-2.21,4.39,4.39,0,0,1,1.29.2m-1,1-.07-.53a1.68,1.68,0,0,0-.47-.06c-.76,0-1.13.47-1.13,1.42,0,.75.26,1.13.77,1.13s1-.4,1-1.21A4.53,4.53,0,0,0,13.69,36.73Z" transform="translate(0 0)"/><path class="cls-4" d="M20,39.51H18.92a2.32,2.32,0,0,1-1.9,2l-.19-.35a1.75,1.75,0,0,0,1.22-1.64H17.2A1.57,1.57,0,0,1,16,39.06a1.65,1.65,0,0,1-.51-1.28,2.19,2.19,0,0,1,.58-1.59,2,2,0,0,1,1.53-.61h1.32v3.11h1v.82m-2-.82V36.1h-.46c-.71,0-1.14.58-1.14,1.52,0,.71.28,1.07.84,1.07Z" transform="translate(0 0)"/><path class="cls-4" d="M23.2,39.51h-.6a1.38,1.38,0,0,1-.9-.28,1.26,1.26,0,0,1-.85.28H19.74v-.82h.87c.43,0,.65-.24.65-.74v-2.8l-.17-1.21,1.07-.25V38c0,.5.22.74.65.74h.39v.82" transform="translate(0 0)"/><path class="cls-4" d="M29.28,39.51H27.13a2.33,2.33,0,0,1-.94-.24,1.67,1.67,0,0,1-.62,0c-.27,0-.39.06-.4.2H22.94v-.82H25a1.38,1.38,0,0,0,.35,0q-.31-.27-1.5-1.41a1.43,1.43,0,0,1,.68-1.15,2.64,2.64,0,0,1,1.65-.52,2.68,2.68,0,0,1,1.65.52,1.46,1.46,0,0,1,.66,1.15L27,38.66a1.5,1.5,0,0,0,.36,0h1.92v.82m-1.74-2.42a.67.67,0,0,0-.35-.48,2.12,2.12,0,0,0-2,0,.81.81,0,0,0-.37.48c.3.29.74.71,1.35,1.27Z" transform="translate(0 0)"/><path class="cls-4" d="M34.63,39.51H34a1.35,1.35,0,0,1-.86-.28,2,2,0,0,1-1.59.78,1.26,1.26,0,0,1-1.16-.67,1.37,1.37,0,0,1-.68.17h-.94v-.82h.7a.54.54,0,0,0,.62-.59A2.05,2.05,0,0,1,32.33,36a4.59,4.59,0,0,1,1.31.21l-.11.94V38c0,.48.22.71.66.71h.44v.82m-2-.64V37.21l-.08-.5a1.21,1.21,0,0,0-.43-.06c-.75,0-1.13.47-1.13,1.41,0,.76.33,1.21.76,1.21A1.2,1.2,0,0,0,32.64,38.87Z" transform="translate(0 0)"/><path class="cls-4" d="M37.42,38.16a1.24,1.24,0,0,1-1.34,1.35H34.39v-.82h1.47c.44,0,.66-.24.66-.74V35.08l-.15-1.19,1.05-.25v4.52" transform="translate(0 0)"/><polyline class="cls-4" points="39.55 33.67 39.45 34.87 39.45 39.5 38.56 39.5 38.56 34.88 38.42 33.76 39.55 33.67"/><path class="cls-4" d="M45.74,39.51a1.53,1.53,0,0,1-1.15-.46,2.58,2.58,0,0,1-1.16.26,1.55,1.55,0,0,1-1.56-1.77,1.8,1.8,0,0,1,.58-1.41A2.17,2.17,0,0,1,44,35.59h.29l-.05-.41q.59-.15,1.08-.24v3c0,.49.22.73.66.73h.57v.82h-.79m-2-5.48a.55.55,0,1,1-.54-.57A.54.54,0,0,1,43.74,34Zm.68,2.15h-.49a1.18,1.18,0,0,0-1.14,1.19c0,.78.29,1.18.84,1.18a3,3,0,0,0,.79-.11ZM45.18,34a.54.54,0,0,1-.54.54.55.55,0,0,1-.56-.56.56.56,0,0,1,.56-.55A.55.55,0,0,1,45.18,34Z" transform="translate(0 0)"/><path class="cls-4" d="M47.34,41a.56.56,0,0,1-.56.54.54.54,0,0,1-.55-.55.56.56,0,0,1,1.11,0m2.44-1.45H49.1a1.36,1.36,0,0,1-.88-.27,1.39,1.39,0,0,1-.87.27H46.28v-.82h.84c.44,0,.66-.23.66-.71v-.93l-.18-1.16,1.07-.24V38c0,.48.22.71.66.71h.45Zm-1,1.45a.55.55,0,0,1-.55.54.53.53,0,0,1-.54-.55.55.55,0,1,1,1.09,0Z" transform="translate(0 0)"/><path class="cls-4" d="M53,39.51h-.68a1.36,1.36,0,0,1-.88-.27,1.39,1.39,0,0,1-.87.27H49.53v-.82h.84c.44,0,.66-.23.66-.71v-.87l-.18-1.18,1.07-.24V38c0,.48.22.71.66.71H53v.82m-1.17-5.27a.56.56,0,0,1-1.11,0,.56.56,0,0,1,.56-.55A.55.55,0,0,1,51.86,34.24Z" transform="translate(0 0)"/><path class="cls-4" d="M58.6,39.51h-2l-.76-.11-.77.11H52.78v-.82h1.54a1.55,1.55,0,0,1-.46-1.17,1.76,1.76,0,0,1,.52-1.31,2,2,0,0,1,1.45-.52,1.94,1.94,0,0,1,1.44.52,1.77,1.77,0,0,1,.53,1.31,1.56,1.56,0,0,1-.47,1.17H58.6v.82m-2.93-5.27a.56.56,0,0,1-.56.55.55.55,0,0,1-.55-.55.55.55,0,0,1,.55-.55A.56.56,0,0,1,55.67,34.24Zm1.16,3.24a1.26,1.26,0,0,0-.32-.91,1,1,0,0,0-1.37,0,1.26,1.26,0,0,0-.31.91c0,.88.33,1.32,1,1.32a.85.85,0,0,0,.76-.43A1.63,1.63,0,0,0,56.83,37.48Zm.27-3.24a.55.55,0,1,1-1.1,0,.55.55,0,1,1,1.1,0Z" transform="translate(0 0)"/><path class="cls-4" d="M61.1,38.2a1.23,1.23,0,0,1-1.33,1.31H58.38v-.82h1.17c.44,0,.66-.23.66-.71v-.89l-.16-1.16,1.05-.23v2.5m-1.34-4a.54.54,0,0,1-.55.55.54.54,0,0,1-.55-.55.55.55,0,0,1,.55-.55A.55.55,0,0,1,59.76,34.24Zm1.44,0a.55.55,0,0,1-.54.55.54.54,0,0,1-.56-.55.55.55,0,1,1,1.1,0Z" transform="translate(0 0)"/><path class="cls-4" d="M67.24,37.44a2.16,2.16,0,0,1-.53,1.5,1.85,1.85,0,0,1-1.42.57A1.78,1.78,0,0,1,63.93,39a2.1,2.1,0,0,1-.51-1.47A2.19,2.19,0,0,1,63.94,36a1.83,1.83,0,0,1,1.45-.59,1.8,1.8,0,0,1,1.85,2m-2-3.2a.56.56,0,0,1-1.11,0,.56.56,0,0,1,1.11,0Zm1.06,3.2c0-1-.3-1.44-.92-1.44s-1,.48-1,1.44.31,1.45.94,1.45S66.27,38.41,66.27,37.44Zm.37-3.2a.54.54,0,0,1-.55.55.56.56,0,0,1-.56-.55.57.57,0,0,1,.56-.55A.55.55,0,0,1,66.64,34.24Z" transform="translate(0 0)"/><path class="cls-4" d="M71.56,37.71v1l.13.82H68.11l.23-.82h2.29l0-.19v-.94a1.9,1.9,0,0,0-.26-1.05.73.73,0,0,0-.63-.34.62.62,0,0,0-.28.06c0-.09,0-.26,0-.51a1.39,1.39,0,0,0,.28,0,1.66,1.66,0,0,1,1.33.58,2.16,2.16,0,0,1,.52,1.44" transform="translate(0 0)"/><path class="cls-4" d="M74.89,39.51h-.71a1.24,1.24,0,0,1-1.33-1.35V35.09l-.16-1.15,1.06-.25V38c0,.5.22.74.65.74h.49v.82" transform="translate(0 0)"/><path class="cls-4" d="M80.51,39.51h-.65a1.35,1.35,0,0,1-.86-.28,2,2,0,0,1-1.59.78,1.26,1.26,0,0,1-1.16-.67,1.37,1.37,0,0,1-.68.17h-.93v-.82h.69A.54.54,0,0,0,76,38.1,2.05,2.05,0,0,1,78.21,36a4.59,4.59,0,0,1,1.31.21l-.11.94V38c0,.48.22.71.66.71h.44v.82m-2-.64V37.21l-.08-.5a1.21,1.21,0,0,0-.43-.06c-.75,0-1.13.47-1.13,1.41,0,.76.33,1.21.76,1.21A1.2,1.2,0,0,0,78.52,38.87Z" transform="translate(0 0)"/><path class="cls-4" d="M85.16,39.51H80.27v-.82h1.61a1.82,1.82,0,0,1-.35-1.14A1.89,1.89,0,0,1,82,36.18a1.63,1.63,0,0,1,1.29-.53,2.74,2.74,0,0,1,1.59.64l-.35.41a1.77,1.77,0,0,0-1-.34q-1.11,0-1.11,1.26a1.06,1.06,0,0,0,.31.81,1,1,0,0,0,.67.26h.47L85,38.57l.12.94" transform="translate(0 0)"/><path class="cls-5" d="M.23,47.81V44H1.54a3.7,3.7,0,0,1,.68,0,1.19,1.19,0,0,1,.56.28,1.46,1.46,0,0,1,.46.65,2.59,2.59,0,0,1,.15.91,2.55,2.55,0,0,1-.11.77,1.71,1.71,0,0,1-.26.56,1.37,1.37,0,0,1-.34.34,1.27,1.27,0,0,1-.46.19,2.27,2.27,0,0,1-.61.07H.23m.5-.45h.82a1.86,1.86,0,0,0,.59-.07.75.75,0,0,0,.34-.2,1.13,1.13,0,0,0,.28-.48,2.31,2.31,0,0,0,.11-.74,1.77,1.77,0,0,0-.2-.92,1,1,0,0,0-.48-.43,2,2,0,0,0-.65-.08H.73Z" transform="translate(0 0)"/><path class="cls-5" d="M5.92,46.92,6.4,47a1.26,1.26,0,0,1-.42.66,1.33,1.33,0,0,1-.8.23,1.27,1.27,0,0,1-1-.37,1.45,1.45,0,0,1-.35-1,1.54,1.54,0,0,1,.36-1.09A1.22,1.22,0,0,1,5.16,45a1.14,1.14,0,0,1,.9.38,1.46,1.46,0,0,1,.36,1.06.72.72,0,0,1,0,.13H4.35a1,1,0,0,0,.26.69.74.74,0,0,0,.58.25.72.72,0,0,0,.44-.14.88.88,0,0,0,.29-.43m-1.54-.76H5.92a.89.89,0,0,0-.18-.52.72.72,0,0,0-.58-.28.77.77,0,0,0-.54.22A.83.83,0,0,0,4.38,46.16Z" transform="translate(0 0)"/><path class="cls-5" d="M8.8,47.47a1.79,1.79,0,0,1-.51.31,1.44,1.44,0,0,1-.51.09,1,1,0,0,1-.7-.22.72.72,0,0,1-.25-.57.75.75,0,0,1,.09-.37.81.81,0,0,1,.25-.27,1.26,1.26,0,0,1,.33-.16l.42-.07a3.55,3.55,0,0,0,.84-.16v-.12a.49.49,0,0,0-.13-.4.77.77,0,0,0-.54-.16.91.91,0,0,0-.49.11.77.77,0,0,0-.23.41l-.46-.06a1.07,1.07,0,0,1,.21-.47.84.84,0,0,1,.41-.28,1.74,1.74,0,0,1,.63-.1,1.84,1.84,0,0,1,.58.08.89.89,0,0,1,.32.21.79.79,0,0,1,.15.32,3.8,3.8,0,0,1,0,.43v.63a6.69,6.69,0,0,0,0,.83,1.1,1.1,0,0,0,.12.33H8.89a.9.9,0,0,1-.09-.34m0-1A3.51,3.51,0,0,1,8,46.6a2.4,2.4,0,0,0-.41.09.45.45,0,0,0-.18.15.37.37,0,0,0-.07.23.41.41,0,0,0,.14.31.66.66,0,0,0,.42.12,1.06,1.06,0,0,0,.48-.11.76.76,0,0,0,.31-.33,1.1,1.1,0,0,0,.08-.47Z" transform="translate(0 0)"/><path class="cls-5" d="M10,47.81V45h.42v.4a1,1,0,0,1,.88-.46,1.14,1.14,0,0,1,.46.09.7.7,0,0,1,.31.23,1,1,0,0,1,.15.35,2.39,2.39,0,0,1,0,.46v1.7h-.47V46.13a1.16,1.16,0,0,0-.06-.43.43.43,0,0,0-.19-.23.58.58,0,0,0-.33-.08.76.76,0,0,0-.52.19.94.94,0,0,0-.21.72v1.51H10" transform="translate(0 0)"/><path class="cls-5" d="M12.74,47l.46-.07a.66.66,0,0,0,.22.43.9.9,0,0,0,1,0,.38.38,0,0,0,.15-.3.28.28,0,0,0-.13-.25,1.69,1.69,0,0,0-.48-.16,3.8,3.8,0,0,1-.72-.23.7.7,0,0,1-.3-.26.69.69,0,0,1-.1-.37.69.69,0,0,1,.08-.35.82.82,0,0,1,.23-.26.84.84,0,0,1,.3-.13,1.35,1.35,0,0,1,.41-.06,1.7,1.7,0,0,1,.57.09.84.84,0,0,1,.36.26.94.94,0,0,1,.16.43l-.46.06a.52.52,0,0,0-.18-.34.66.66,0,0,0-.42-.12.75.75,0,0,0-.46.11.33.33,0,0,0-.14.25.27.27,0,0,0,.06.17.41.41,0,0,0,.18.12l.41.12a6.1,6.1,0,0,1,.7.22.66.66,0,0,1,.3.24A.69.69,0,0,1,15,47a.82.82,0,0,1-.14.44.89.89,0,0,1-.39.32,1.59,1.59,0,0,1-.59.11,1.29,1.29,0,0,1-.82-.22,1,1,0,0,1-.36-.67" transform="translate(0 0)"/><path class="cls-5" d="M15.59,47.81V44h.47v1.37a1.07,1.07,0,0,1,.83-.38,1.16,1.16,0,0,1,.54.12.66.66,0,0,1,.32.34,1.42,1.42,0,0,1,.1.62v1.75h-.47V46.06a.75.75,0,0,0-.15-.52.6.6,0,0,0-.43-.16.83.83,0,0,0-.4.11.61.61,0,0,0-.26.29,1.45,1.45,0,0,0-.08.52v1.51h-.47" transform="translate(0 0)"/><path class="cls-5" d="M19,44.53h-.46V44H19Zm0,3.28h-.46V45H19Z" transform="translate(0 0)"/><path class="cls-5" d="M19.75,48.87V45h.43v.36a1.14,1.14,0,0,1,.34-.32A.92.92,0,0,1,21,45a1.1,1.1,0,0,1,.62.18,1.13,1.13,0,0,1,.41.52,2,2,0,0,1,0,1.49,1.13,1.13,0,0,1-.44.52,1.17,1.17,0,0,1-.62.18.87.87,0,0,1-.42-.1.91.91,0,0,1-.3-.25v1.35h-.47m.42-2.43a1.17,1.17,0,0,0,.22.79.66.66,0,0,0,.52.26.68.68,0,0,0,.54-.27,1.24,1.24,0,0,0,.22-.82,1.2,1.2,0,0,0-.22-.79.62.62,0,0,0-.52-.26.67.67,0,0,0-.53.28A1.24,1.24,0,0,0,20.17,46.44Z" transform="translate(0 0)"/><path class="cls-5" d="M24,46.43a1.43,1.43,0,0,1,.43-1.14,1.27,1.27,0,0,1,.87-.31,1.23,1.23,0,0,1,.93.37,1.41,1.41,0,0,1,.37,1,2,2,0,0,1-.16.84,1.18,1.18,0,0,1-.47.47,1.39,1.39,0,0,1-.67.17,1.24,1.24,0,0,1-.94-.37A1.49,1.49,0,0,1,24,46.43m.49,0a1.13,1.13,0,0,0,.23.79.76.76,0,0,0,1.16,0,1.19,1.19,0,0,0,.23-.81,1.14,1.14,0,0,0-.23-.78.78.78,0,0,0-1.16,0A1.16,1.16,0,0,0,24.51,46.43Z" transform="translate(0 0)"/><path class="cls-5" d="M27.28,47.81v-2.4h-.42V45h.42v-.29a1.4,1.4,0,0,1,0-.42.52.52,0,0,1,.24-.29.8.8,0,0,1,.47-.12,2.37,2.37,0,0,1,.44,0l-.07.41a1.31,1.31,0,0,0-.27,0,.43.43,0,0,0-.31.09.53.53,0,0,0-.08.35V45h.53v.37h-.53v2.4h-.47" transform="translate(0 0)"/><rect class="cls-5" x="30.28" y="43.99" width="0.51" height="3.82"/><path class="cls-5" d="M31.62,47.81V45H32v.4a1,1,0,0,1,.88-.46,1.18,1.18,0,0,1,.46.09.76.76,0,0,1,.31.23,1,1,0,0,1,.15.35,2.64,2.64,0,0,1,0,.46v1.7h-.47V46.13a1.2,1.2,0,0,0,0-.43.48.48,0,0,0-.19-.23.62.62,0,0,0-.33-.08.76.76,0,0,0-.52.19.93.93,0,0,0-.22.72v1.51h-.46" transform="translate(0 0)"/><path class="cls-5" d="M34.7,47.81v-2.4h-.42V45h.42v-.29a1.47,1.47,0,0,1,0-.42A.62.62,0,0,1,35,44a.85.85,0,0,1,.48-.12,2.47,2.47,0,0,1,.44,0l-.07.41-.28,0a.41.41,0,0,0-.3.09.53.53,0,0,0-.09.35V45h.54v.37h-.54v2.4H34.7" transform="translate(0 0)"/><path class="cls-5" d="M35.89,46.43a1.39,1.39,0,0,1,.43-1.14,1.27,1.27,0,0,1,.87-.31,1.23,1.23,0,0,1,.93.37,1.45,1.45,0,0,1,.36,1,1.82,1.82,0,0,1-.16.84,1.1,1.1,0,0,1-.46.47,1.42,1.42,0,0,1-.67.17,1.24,1.24,0,0,1-.94-.37,1.49,1.49,0,0,1-.36-1.07m.48,0a1.18,1.18,0,0,0,.23.79.75.75,0,0,0,.59.27.73.73,0,0,0,.58-.27,1.24,1.24,0,0,0,.23-.81,1.19,1.19,0,0,0-.23-.78.79.79,0,0,0-1.17,0A1.21,1.21,0,0,0,36.37,46.43Z" transform="translate(0 0)"/><path class="cls-5" d="M39,47.81V45h.42v.42a1.25,1.25,0,0,1,.3-.39.53.53,0,0,1,.3-.09.9.9,0,0,1,.48.15l-.16.44a.65.65,0,0,0-.34-.11.48.48,0,0,0-.45.35,1.63,1.63,0,0,0-.08.55v1.45H39" transform="translate(0 0)"/><path class="cls-5" d="M40.81,47.81V45h.42v.39a1,1,0,0,1,.35-.33,1,1,0,0,1,.49-.12.87.87,0,0,1,.5.13.61.61,0,0,1,.28.35,1,1,0,0,1,.86-.48.85.85,0,0,1,.63.23,1,1,0,0,1,.22.7v1.9h-.47V46.07a1.35,1.35,0,0,0,0-.41.41.41,0,0,0-.17-.2.51.51,0,0,0-.28-.07.65.65,0,0,0-.48.19.85.85,0,0,0-.2.62v1.61h-.46V46a.78.78,0,0,0-.12-.47.44.44,0,0,0-.37-.15.66.66,0,0,0-.37.1.58.58,0,0,0-.24.31,1.65,1.65,0,0,0-.08.57v1.44h-.47" transform="translate(0 0)"/><path class="cls-5" d="M47.06,47.47a1.63,1.63,0,0,1-.5.31,1.46,1.46,0,0,1-.52.09,1,1,0,0,1-.7-.22.8.8,0,0,1-.15-.94.78.78,0,0,1,.24-.27,1.19,1.19,0,0,1,.34-.16l.42-.07a3.45,3.45,0,0,0,.83-.16c0-.06,0-.1,0-.12a.49.49,0,0,0-.14-.4.75.75,0,0,0-.53-.16.91.91,0,0,0-.49.11.71.71,0,0,0-.23.41l-.46-.06a1.19,1.19,0,0,1,.2-.47.92.92,0,0,1,.42-.28,1.74,1.74,0,0,1,.63-.1,1.77,1.77,0,0,1,.57.08.85.85,0,0,1,.33.21.67.67,0,0,1,.14.32,2.1,2.1,0,0,1,0,.43v.63a6.69,6.69,0,0,0,0,.83,1.1,1.1,0,0,0,.12.33h-.49a1.13,1.13,0,0,1-.1-.34m0-1a3.4,3.4,0,0,1-.76.18,2.19,2.19,0,0,0-.41.09.58.58,0,0,0-.19.15.44.44,0,0,0-.06.23.38.38,0,0,0,.14.31.62.62,0,0,0,.42.12,1.06,1.06,0,0,0,.48-.11.76.76,0,0,0,.31-.33,1.13,1.13,0,0,0,.07-.47Z" transform="translate(0 0)"/><path class="cls-5" d="M49.25,47.39l.07.41a1.72,1.72,0,0,1-.36.05.7.7,0,0,1-.39-.09.41.41,0,0,1-.2-.21,1.6,1.6,0,0,1-.06-.55V45.41H48V45h.34v-.68l.47-.28v1h.47v.37h-.47V47a1.18,1.18,0,0,0,0,.26.24.24,0,0,0,.08.09.25.25,0,0,0,.16,0l.21,0" transform="translate(0 0)"/><path class="cls-5" d="M50.18,44.53h-.47V44h.47Zm0,3.28h-.47V45h.47Z" transform="translate(0 0)"/><path class="cls-5" d="M50.72,46.43a1.39,1.39,0,0,1,.43-1.14,1.36,1.36,0,0,1,1.8.06,1.45,1.45,0,0,1,.36,1,1.82,1.82,0,0,1-.16.84,1.12,1.12,0,0,1-.47.47,1.35,1.35,0,0,1-.66.17,1.24,1.24,0,0,1-.94-.37,1.49,1.49,0,0,1-.36-1.07m.48,0a1.18,1.18,0,0,0,.23.79.77.77,0,0,0,1.17,0,1.24,1.24,0,0,0,.23-.81,1.19,1.19,0,0,0-.23-.78.79.79,0,0,0-1.17,0A1.21,1.21,0,0,0,51.2,46.43Z" transform="translate(0 0)"/><path class="cls-5" d="M53.86,47.81V45h.42v.4a1,1,0,0,1,.88-.46,1.14,1.14,0,0,1,.46.09.8.8,0,0,1,.32.23.83.83,0,0,1,.14.35,2.39,2.39,0,0,1,0,.46v1.7h-.47V46.13a1.48,1.48,0,0,0,0-.43.5.5,0,0,0-.2-.23.58.58,0,0,0-.33-.08.72.72,0,0,0-.51.19.9.9,0,0,0-.22.72v1.51h-.47" transform="translate(0 0)"/><polyline class="cls-5" points="59.25 47.8 59.25 44.44 57.99 44.44 57.99 43.99 61.02 43.99 61.02 44.44 59.75 44.44 59.75 47.8 59.25 47.8"/><path class="cls-5" d="M62.78,46.92l.48.06a1.2,1.2,0,0,1-.42.66,1.33,1.33,0,0,1-.8.23,1.27,1.27,0,0,1-1-.37,1.5,1.5,0,0,1-.35-1,1.54,1.54,0,0,1,.36-1.09A1.24,1.24,0,0,1,62,45a1.17,1.17,0,0,1,.91.38,1.5,1.5,0,0,1,.35,1.06v.13H61.21a1.08,1.08,0,0,0,.26.69.74.74,0,0,0,.58.25.72.72,0,0,0,.44-.14.88.88,0,0,0,.29-.43m-1.54-.76h1.54a1,1,0,0,0-.17-.52.74.74,0,0,0-.58-.28.78.78,0,0,0-.55.22A.83.83,0,0,0,61.24,46.16Z" transform="translate(0 0)"/><path class="cls-5" d="M65.66,46.8l.46.05a1.19,1.19,0,0,1-.39.75,1.12,1.12,0,0,1-.76.27,1.19,1.19,0,0,1-.92-.37,1.5,1.5,0,0,1-.34-1.06,2,2,0,0,1,.15-.79,1,1,0,0,1,.45-.5A1.35,1.35,0,0,1,65,45a1.17,1.17,0,0,1,.74.23,1,1,0,0,1,.36.65l-.45.06a.72.72,0,0,0-.23-.41.59.59,0,0,0-.4-.15.74.74,0,0,0-.58.26,1.19,1.19,0,0,0-.22.8,1.25,1.25,0,0,0,.21.81.71.71,0,0,0,.56.26.65.65,0,0,0,.46-.17.87.87,0,0,0,.24-.52" transform="translate(0 0)"/><path class="cls-5" d="M66.52,47.81V44H67v1.37a1.05,1.05,0,0,1,.83-.38,1.12,1.12,0,0,1,.53.12.72.72,0,0,1,.33.34,1.62,1.62,0,0,1,.09.62v1.75H68.3V46.06a.75.75,0,0,0-.15-.52.58.58,0,0,0-.43-.16.77.77,0,0,0-.39.11.61.61,0,0,0-.26.29,1.45,1.45,0,0,0-.08.52v1.51h-.47" transform="translate(0 0)"/><path class="cls-5" d="M69.49,47.81V45h.42v.4a1,1,0,0,1,.88-.46,1.14,1.14,0,0,1,.46.09.76.76,0,0,1,.31.23,1,1,0,0,1,.15.35,2.39,2.39,0,0,1,0,.46v1.7h-.47V46.13a1.16,1.16,0,0,0-.06-.43.43.43,0,0,0-.19-.23.6.6,0,0,0-.33-.08.76.76,0,0,0-.52.19.94.94,0,0,0-.21.72v1.51h-.47" transform="translate(0 0)"/><path class="cls-5" d="M72.28,46.43a1.39,1.39,0,0,1,.43-1.14,1.27,1.27,0,0,1,.87-.31,1.23,1.23,0,0,1,.93.37,1.45,1.45,0,0,1,.36,1,1.82,1.82,0,0,1-.16.84,1.1,1.1,0,0,1-.46.47,1.42,1.42,0,0,1-.67.17,1.24,1.24,0,0,1-.94-.37,1.49,1.49,0,0,1-.36-1.07m.48,0a1.13,1.13,0,0,0,.24.79.72.72,0,0,0,.58.27.74.74,0,0,0,.58-.27,1.24,1.24,0,0,0,.23-.81,1.19,1.19,0,0,0-.23-.78.77.77,0,0,0-.58-.26.74.74,0,0,0-.58.26A1.16,1.16,0,0,0,72.76,46.43Z" transform="translate(0 0)"/><rect class="cls-5" x="75.41" y="43.99" width="0.47" height="3.82"/><path class="cls-5" d="M76.44,46.43a1.42,1.42,0,0,1,.42-1.14,1.38,1.38,0,0,1,1.81.06,1.45,1.45,0,0,1,.36,1,2,2,0,0,1-.16.84,1.12,1.12,0,0,1-.47.47,1.39,1.39,0,0,1-.67.17,1.25,1.25,0,0,1-.94-.37,1.53,1.53,0,0,1-.35-1.07m.48,0a1.13,1.13,0,0,0,.23.79.73.73,0,0,0,.58.27.72.72,0,0,0,.58-.27,1.19,1.19,0,0,0,.24-.81,1.14,1.14,0,0,0-.24-.78.78.78,0,0,0-1.16,0A1.16,1.16,0,0,0,76.92,46.43Z" transform="translate(0 0)"/><path class="cls-5" d="M79.49,48l.46.07a.4.4,0,0,0,.16.3.73.73,0,0,0,.47.13.84.84,0,0,0,.51-.13.63.63,0,0,0,.24-.36,3.77,3.77,0,0,0,0-.6,1,1,0,0,1-.77.36,1.05,1.05,0,0,1-.88-.41,1.6,1.6,0,0,1-.31-1,1.94,1.94,0,0,1,.14-.73,1.15,1.15,0,0,1,.42-.52A1.12,1.12,0,0,1,80.6,45a1,1,0,0,1,.8.4V45h.44v2.39a2.45,2.45,0,0,1-.13.92,1,1,0,0,1-.42.43,1.51,1.51,0,0,1-.7.15,1.36,1.36,0,0,1-.81-.22.77.77,0,0,1-.29-.67m.39-1.66a1.17,1.17,0,0,0,.22.79.66.66,0,0,0,.54.25.69.69,0,0,0,.54-.25,1.43,1.43,0,0,0,0-1.54.69.69,0,0,0-1.07,0A1.11,1.11,0,0,0,79.88,46.38Z" transform="translate(0 0)"/><path class="cls-5" d="M82.52,48.87l0-.44a1,1,0,0,0,.27,0,.46.46,0,0,0,.25-.06.4.4,0,0,0,.15-.14,3.11,3.11,0,0,0,.15-.35s0-.07,0-.12l-1-2.77h.5l.58,1.6a6.17,6.17,0,0,1,.2.65c.06-.22.12-.43.19-.63l.6-1.62h.47l-1.06,2.82a5.25,5.25,0,0,1-.26.62.83.83,0,0,1-.29.34.61.61,0,0,1-.38.11,1,1,0,0,1-.31-.06" transform="translate(0 0)"/><path class="cls-6" d="M53.51,2.76c-1.94-4-7.85-3.58-13.21,1-.47.39-.86.78-1.25,1.16a6.36,6.36,0,0,1,.7-.62c4.67-4,9.72-4.43,11.43-.93,1.09,2.25.39,5.67-1.55,8.94-1.17,1.48-3,2.1-2.72.15.07-.46.77-3.65,1.39-6.21a13.81,13.81,0,0,0-3.42-.78,5.93,5.93,0,0,0-5,1.94,7.81,7.81,0,0,0-2.33,4.9A3,3,0,0,0,38.35,15,3.42,3.42,0,0,0,41,16a5.08,5.08,0,0,0,3.34-1.32A4,4,0,0,0,47.22,16a5.62,5.62,0,0,0,4.66-3c2.18-3.73,2.95-7.7,1.63-10.26m-8.94,8.16a4.26,4.26,0,0,1-1.09,1.86,2.32,2.32,0,0,1-1.78.78c-.78,0-1.09-.46-1-1.4A5.47,5.47,0,0,1,42,9.05,3.32,3.32,0,0,1,44.57,7.5a1.33,1.33,0,0,1,.94.39c-.39,1.24-.7,2.25-.94,3" transform="translate(0 0)"/><path class="cls-7" d="M42.7,27.78a4.93,4.93,0,0,0-.55,0h0c.31-.75,3.64-8,16.06-9.93l1.34-2.57S44.88,18.56,41.75,27.77A4.26,4.26,0,0,0,39.1,29L39,29s-7.7-3.18-20.76-1.86c0,0,12.55-.42,21.61,2.94.84.32,1.46.59,1.7.69l.11.05a33.49,33.49,0,0,1,3.95-1.39l0,0a44.85,44.85,0,0,1,12.93-1.46s-8-.79-13.29,1a4.12,4.12,0,0,0-1-.75c1-.61,6.91-3.93,16.55-3.54l2-.92s-10.27-1.91-19,4.26l-.41-.13c.93-1,7.28-7.23,21-6.82l2.56-2.34s-16.44.09-24.21,9" transform="translate(0 0)"/><path class="cls-8" d="M28,9.47V9.36h.15a.4.4,0,0,0,.36-.17.82.82,0,0,0,.07-.44V6.12a1,1,0,0,0-.08-.48.48.48,0,0,0-.35-.13H28V5.4h1.65A3.59,3.59,0,0,1,31,5.61a1.63,1.63,0,0,1,.76.69,2,2,0,0,1,.29,1.11,2,2,0,0,1-.51,1.42,2.27,2.27,0,0,1-1.77.64H28m1.16-.29a3.37,3.37,0,0,0,.64.08,1.49,1.49,0,0,0,1.15-.49,1.86,1.86,0,0,0,.46-1.33,1.81,1.81,0,0,0-.46-1.32,1.53,1.53,0,0,0-1.18-.49,2.43,2.43,0,0,0-.61.09Z" transform="translate(0 0)"/><path class="cls-8" d="M34.2,9.36v.11H32.45V9.36h.15A.42.42,0,0,0,33,9.21.89.89,0,0,0,33,8.75V6.12a1.82,1.82,0,0,0,0-.41.32.32,0,0,0-.13-.13.68.68,0,0,0-.27-.07h-.15V5.4H34.2v.11h-.15a.41.41,0,0,0-.36.15.86.86,0,0,0-.08.46V8.75a1.23,1.23,0,0,0,0,.41.27.27,0,0,0,.13.13.6.6,0,0,0,.27.07h.15" transform="translate(0 0)"/><path class="cls-8" d="M37.9,5.4l.05,1h-.12A1,1,0,0,0,37.74,6a.53.53,0,0,0-.25-.26.77.77,0,0,0-.4-.08h-.58v3.1a.77.77,0,0,0,.09.47.42.42,0,0,0,.35.13h.14v.11H35.36V9.36h.15a.39.39,0,0,0,.36-.16.82.82,0,0,0,.07-.44V5.66h-.49a1.35,1.35,0,0,0-.41,0,.54.54,0,0,0-.26.22.77.77,0,0,0-.13.44h-.12l0-1H37.9" transform="translate(0 0)"/><g class="cls-9"><g class="cls-10"><path class="cls-11" d="M45.7.56h0l.11,0h0l-.11,0m-.45.16h0l.13,0h0l-.13,0" transform="translate(0 0)"/><path class="cls-12" d="M45.42,1.23a.48.48,0,0,1-.17-.42V.72l.13,0a.53.53,0,0,0,0,.13c0,.23.07.36.18.36s.18-.14.18-.37a.78.78,0,0,0,0-.24l.11,0a.79.79,0,0,1,0,.28.6.6,0,0,1-.09.36l-.34.07" transform="translate(0 0)"/></g></g><g class="cls-9"><g class="cls-10"><path class="cls-12" d="M47.92,1.07h-.11a.93.93,0,0,0,0-.26c0-.22-.05-.36-.18-.36s-.18.13-.18.37a.69.69,0,0,0,0,.22h-.12a.66.66,0,0,1,0-.21c0-.3.13-.47.31-.47S48,.51,48,.8a.7.7,0,0,1,0,.27" transform="translate(0 0)"/><path class="cls-12" d="M48.54,1.2l-.12,0c.08,0,.13-.17.13-.36s-.06-.36-.18-.36-.19.13-.19.37a.51.51,0,0,0,.09.32l-.15,0a.74.74,0,0,1-.06-.29c0-.3.13-.47.31-.47s.3.17.3.46a.56.56,0,0,1-.13.4" transform="translate(0 0)"/></g></g><g class="cls-9"><g class="cls-10"><path class="cls-11" d="M51.13.45,51,.4h0l.11,0h0m.33.16L51.32.53h0l.15.07h0" transform="translate(0 0)"/></g></g><g class="cls-9"><g class="cls-10"><path class="cls-13" d="M50.92,2.92c0-.06-.07-.11-.1-.16a1.13,1.13,0,0,0,0-.35c0-.33-.08-.54-.27-.54s-.21.12-.25.34a1.85,1.85,0,0,1-.14-.14.43.43,0,0,1,.4-.34c.28,0,.43.25.43.67a1,1,0,0,1-.12.52" transform="translate(0 0)"/></g></g><g class="cls-9"><g class="cls-10"><path class="cls-14" d="M51.62,4.43h-.08a.75.75,0,0,0,0-.16V3.65h0l-.15.08,0-.09.2-.1h.1v.89" transform="translate(0 0)"/></g></g><path class="cls-14" d="M52.24,3.61c-.11,0-.18.13-.18.38s.07.36.18.36.18-.15.18-.37-.06-.37-.18-.37m0,.83c-.17,0-.29-.16-.3-.46s.13-.46.31-.46.3.17.3.45-.11.47-.31.47" transform="translate(0 0)"/><polyline class="cls-14" points="53.03 4.42 52.91 4.42 52.91 3.65 52.91 3.65 52.76 3.73 52.73 3.64 52.92 3.53 53.03 3.53 53.03 4.42"/><polyline class="cls-14" points="53.73 4.42 53.62 4.42 53.62 3.65 53.61 3.65 53.46 3.73 53.44 3.64 53.63 3.53 53.73 3.53 53.73 4.42"/><path class="cls-11" d="M42.19,5.85h0l.13,0h0l-.13,0M41.84,6h0l.1,0h0l-.1,0" transform="translate(0 0)"/><path class="cls-12" d="M42,6.09A.23.23,0,0,1,41.84,6l.1,0A.16.16,0,0,0,42,6c.08,0,.13,0,.16-.14l.13,0c0,.19-.14.29-.29.29" transform="translate(0 0)"/><g class="cls-9"><g class="cls-10"><path class="cls-11" d="M42.71,5.68h0l.12,0h0l-.12,0" transform="translate(0 0)"/><path class="cls-12" d="M42.83,6.07h-.12V5.68l.12,0v.42" transform="translate(0 0)"/><path class="cls-11" d="M43.62,5.52h.12l-.12,0m-.48.06h0l.12,0h0l-.12,0" transform="translate(0 0)"/><path class="cls-12" d="M43.43,6.09c-.17,0-.29-.17-.29-.46v0l.12,0v.07c0,.23.07.36.18.36s.18-.14.18-.37v-.1l.12,0v.12c0,.3-.11.47-.31.47" transform="translate(0 0)"/><path class="cls-11" d="M44.12,5.48h0" transform="translate(0 0)"/></g></g><path class="cls-12" d="M44.23,6.07h-.11V5.48h.11v.59" transform="translate(0 0)"/><g class="cls-9"><g class="cls-10"><path class="cls-11" d="M44.68,5.47h0m.46,0h0" transform="translate(0 0)"/><path class="cls-12" d="M44.84,6.09c-.17,0-.29-.17-.29-.46a.81.81,0,0,1,0-.16h.12a.81.81,0,0,0,0,.16c0,.23.07.36.18.36s.18-.14.18-.37a.61.61,0,0,0,0-.14h.12a.53.53,0,0,1,0,.13c0,.3-.11.47-.31.47" transform="translate(0 0)"/><path class="cls-11" d="M45.38,5.51h-.12l.12,0h0m.47.07-.12,0h0l.12,0h0" transform="translate(0 0)"/></g></g><path class="cls-12" d="M45.54,6.09c-.17,0-.29-.17-.29-.46a.53.53,0,0,1,0-.13h.12a.49.49,0,0,0,0,.12c0,.23.07.36.18.36s.18-.14.18-.37V5.56l.12,0v0c0,.3-.11.47-.31.47" transform="translate(0 0)"/><g class="cls-9"><g class="cls-10"><path class="cls-11" d="M46.34,5.68l-.11,0h0l.11,0h0" transform="translate(0 0)"/></g></g><path class="cls-12" d="M46.34,6.07h-.11V5.66l.11,0v.39" transform="translate(0 0)"/><g class="cls-9"><g class="cls-10"><path class="cls-11" d="M46.79,5.79l-.12,0h0l.12,0h0m.42.12-.11,0h0l.11,0h0" transform="translate(0 0)"/></g></g><path class="cls-12" d="M47,6.09c-.14,0-.25-.12-.28-.33l.12,0c0,.13.09.2.17.2a.16.16,0,0,0,.14-.11l.11,0a.27.27,0,0,1-.26.18" transform="translate(0 0)"/><path class="cls-12" d="M38.17,10.67c-.05,0-.08.06-.08.17s0,.17.08.17.09-.06.09-.17,0-.17-.09-.17m0,.38c-.08,0-.14-.07-.14-.21s.06-.21.15-.21.13.08.13.21-.05.21-.14.21" transform="translate(0 0)"/><polyline class="cls-12" points="38.54 11.04 38.48 11.04 38.48 10.69 38.48 10.69 38.41 10.72 38.4 10.68 38.49 10.63 38.54 10.63 38.54 11.04"/><path class="cls-12" d="M38.82,10.67s-.08.06-.08.17,0,.17.08.17.08-.06.08-.17,0-.17-.08-.17m0,.38c-.08,0-.14-.07-.14-.21s.06-.21.14-.21.14.08.14.21-.05.21-.14.21" transform="translate(0 0)"/><polyline class="cls-12" points="39.18 11.04 39.13 11.04 39.13 10.69 39.13 10.69 39.06 10.72 39.05 10.68 39.14 10.63 39.18 10.63 39.18 11.04"/><path class="cls-12" d="M39.47,10.67s-.09.06-.09.17,0,.17.09.17.08-.06.08-.17,0-.17-.08-.17m0,.38c-.08,0-.13-.07-.13-.21s.06-.21.14-.21.14.08.14.21-.06.21-.15.21" transform="translate(0 0)"/><path class="cls-12" d="M39.79,10.67s-.08.06-.08.17,0,.17.08.17.08-.06.08-.17,0-.17-.08-.17m0,.38c-.08,0-.14-.07-.14-.21s.06-.21.14-.21.14.08.14.21,0,.21-.14.21" transform="translate(0 0)"/><polyline class="cls-12" points="40.16 11.04 40.1 11.04 40.1 10.69 40.1 10.69 40.03 10.72 40.02 10.68 40.11 10.63 40.16 10.63 40.16 11.04"/><path class="cls-12" d="M40.44,10.67s-.09.06-.09.17,0,.17.09.17.08-.06.08-.17,0-.17-.08-.17m0,.38c-.08,0-.13-.07-.13-.21s.06-.21.14-.21.14.08.14.21,0,.21-.15.21" transform="translate(0 0)"/><path class="cls-12" d="M38.58,9.68c-.07,0-.12.08-.12.25s0,.24.12.24.12-.1.12-.25,0-.24-.12-.24m0,.55c-.12,0-.2-.11-.2-.31s.09-.3.21-.3.19.11.19.3-.07.31-.2.31" transform="translate(0 0)"/><polyline class="cls-12" points="39.11 10.22 39.03 10.22 39.03 9.7 39.03 9.7 38.93 9.75 38.91 9.69 39.04 9.62 39.11 9.62 39.11 10.22"/><path class="cls-12" d="M39.52,9.68c-.07,0-.12.08-.12.25s.05.24.12.24.12-.1.12-.25,0-.24-.12-.24m0,.55c-.12,0-.2-.11-.2-.31s.09-.3.21-.3.19.11.19.3-.07.31-.2.31" transform="translate(0 0)"/><polyline class="cls-12" points="40.05 10.22 39.97 10.22 39.97 9.7 39.97 9.7 39.87 9.75 39.85 9.69 39.98 9.62 40.05 9.62 40.05 10.22"/><path class="cls-12" d="M40.46,9.68c-.07,0-.12.08-.12.25s0,.24.12.24.12-.1.12-.25,0-.24-.12-.24m0,.55c-.11,0-.19-.11-.19-.31s.08-.3.2-.3.2.11.2.3-.07.31-.21.31" transform="translate(0 0)"/><path class="cls-12" d="M40.93,9.68c-.07,0-.12.08-.12.25s0,.24.12.24.12-.1.12-.25,0-.24-.12-.24m0,.55c-.11,0-.19-.11-.19-.31s.08-.3.2-.3.2.11.2.3-.08.31-.21.31" transform="translate(0 0)"/><path class="cls-11" d="M51.69,6V6" transform="translate(0 0)"/><g class="cls-9"><g class="cls-10"><path class="cls-12" d="M51.89,5.26c-.11,0-.19.13-.19.37s.07.36.18.36.19-.14.19-.37-.06-.36-.18-.36m0,.83A.23.23,0,0,1,51.69,6V5.86a5.52,5.52,0,0,0,0-.58.28.28,0,0,1,.22-.11c.19,0,.3.16.3.45s-.12.47-.31.47" transform="translate(0 0)"/></g></g><path class="cls-12" d="M52.59,5.26c-.11,0-.18.13-.18.37s.07.36.18.36.18-.14.18-.37-.06-.36-.18-.36m0,.83c-.17,0-.29-.17-.29-.46s.12-.46.31-.46.29.16.29.45-.11.47-.31.47" transform="translate(0 0)"/><polyline class="cls-12" points="53.38 6.07 53.26 6.07 53.26 5.29 53.26 5.29 53.11 5.37 53.08 5.28 53.28 5.18 53.38 5.18 53.38 6.07"/><polyline class="cls-12" points="54.08 6.07 53.97 6.07 53.97 5.29 53.97 5.29 53.81 5.37 53.79 5.28 53.98 5.18 54.08 5.18 54.08 6.07"/><path class="cls-13" d="M41.29,6.69c-.16,0-.27.19-.27.55s.11.53.27.53.26-.21.26-.54-.08-.54-.26-.54m0,1.22c-.26,0-.43-.24-.44-.67s.19-.68.46-.68.43.24.43.66-.16.69-.45.69" transform="translate(0 0)"/><polyline class="cls-13" points="42.45 7.88 42.28 7.88 42.28 6.74 42.28 6.74 42.05 6.86 42.02 6.73 42.3 6.58 42.45 6.58 42.45 7.88"/><g class="cls-9"><g class="cls-10"><path class="cls-13" d="M43.36,6.69c-.16,0-.27.19-.27.55s.11.53.27.53.26-.21.26-.54-.08-.54-.26-.54m-.13,1.2c-.19-.06-.31-.29-.32-.65s.19-.68.46-.68.43.24.43.66a1,1,0,0,1-.07.43,2.85,2.85,0,0,0-.5.24" transform="translate(0 0)"/></g></g><path class="cls-13" d="M44.35,7.51V6.74h0l-.23.13,0-.14.28-.15h.15V7.5h-.17" transform="translate(0 0)"/><path class="cls-11" d="M45.5,7.9h0" transform="translate(0 0)"/><g class="cls-9"><g class="cls-10"><path class="cls-13" d="M45.5,7.9h0l-.14-.12h.06c.18,0,.26-.21.26-.54s-.08-.54-.26-.54-.27.19-.27.55a.78.78,0,0,0,.11.46A.9.9,0,0,0,45,7.58,1.16,1.16,0,0,1,45,7.24c0-.44.19-.68.46-.68s.43.24.43.66-.13.64-.37.68" transform="translate(0 0)"/></g></g><polyline class="cls-13" points="46.59 7.88 46.42 7.88 46.42 6.74 46.42 6.74 46.19 6.86 46.16 6.73 46.44 6.58 46.59 6.58 46.59 7.88"/><path class="cls-13" d="M47.5,6.69c-.16,0-.27.19-.27.55s.1.53.27.53.26-.21.26-.54-.08-.54-.26-.54m0,1.22c-.26,0-.43-.24-.44-.67s.19-.68.46-.68.43.24.43.66-.16.69-.45.69" transform="translate(0 0)"/><g class="cls-9"><g class="cls-10"><path class="cls-11" d="M51.59,7.14h0c0-.19,0-.38.07-.56h0c0,.18,0,.37-.07.56" transform="translate(0 0)"/><path class="cls-13" d="M51.77,7.89h-.18V7.14c0-.19,0-.38.07-.56h.11V7.89" transform="translate(0 0)"/></g></g><polyline class="cls-13" points="52.8 7.88 52.63 7.88 52.63 6.74 52.63 6.74 52.4 6.86 52.36 6.73 52.65 6.58 52.8 6.58 52.8 7.88"/><polyline class="cls-13" points="53.84 7.88 53.66 7.88 53.66 6.74 53.66 6.74 53.43 6.86 53.4 6.73 53.69 6.58 53.84 6.58 53.84 7.88"/><polyline class="cls-14" points="40.01 9.24 39.89 9.24 39.89 8.47 39.89 8.47 39.74 8.55 39.71 8.46 39.91 8.35 40.01 8.35 40.01 9.24"/><path class="cls-14" d="M40.63,8.44c-.11,0-.19.12-.19.37s.08.36.19.36.18-.14.18-.37-.06-.36-.18-.36m0,.82c-.18,0-.29-.16-.3-.45s.13-.47.31-.47.3.17.3.45-.11.47-.31.47" transform="translate(0 0)"/><polyline class="cls-14" points="41.42 9.24 41.3 9.24 41.3 8.47 41.3 8.47 41.14 8.55 41.12 8.46 41.31 8.35 41.42 8.35 41.42 9.24"/><g class="cls-9"><g class="cls-10"><path class="cls-14" d="M41.88,9.21a.48.48,0,0,1-.15-.4c0-.3.13-.47.31-.47s.26.12.29.33a.69.69,0,0,0-.11.13c0-.22-.06-.36-.19-.36s-.18.12-.18.37a.47.47,0,0,0,.09.32l-.06.08" transform="translate(0 0)"/></g></g><polyline class="cls-14" points="45.64 9.24 45.52 9.24 45.52 8.47 45.52 8.47 45.37 8.55 45.34 8.46 45.54 8.35 45.64 8.35 45.64 9.24"/><path class="cls-14" d="M46.26,8.44c-.11,0-.19.12-.19.37s.07.36.18.36.19-.14.19-.37-.06-.36-.18-.36m0,.82c-.18,0-.29-.16-.3-.45s.13-.47.31-.47.3.17.3.45-.12.47-.31.47" transform="translate(0 0)"/><path class="cls-14" d="M47,8.44c-.11,0-.18.12-.18.37s.07.36.18.36.18-.14.18-.37-.06-.36-.18-.36m0,.82c-.17,0-.29-.16-.29-.45s.13-.47.31-.47.29.17.29.45-.11.47-.31.47" transform="translate(0 0)"/><path class="cls-14" d="M47.6,9.26c-.14,0-.24-.19-.24-.45s.13-.47.31-.47a.2.2,0,0,1,.13,0l0,.11a.17.17,0,0,0-.12-.05c-.1,0-.18.12-.18.37s.06.33.14.35l0,.1" transform="translate(0 0)"/><g class="cls-9"><g class="cls-10"><path class="cls-11" d="M51.3,8.5h0l0-.11h0l0,.11m-.23.74h0l0-.1h0l0,.1" transform="translate(0 0)"/><path class="cls-14" d="M51.17,9.26a.18.18,0,0,1-.1,0l0-.1a.13.13,0,0,0,.08,0c.12,0,.18-.14.18-.37a.61.61,0,0,0-.06-.3l0-.11a.44.44,0,0,1,.15.4c0,.31-.11.47-.31.47" transform="translate(0 0)"/></g></g><path class="cls-14" d="M51.88,8.44c-.1,0-.18.12-.18.37s.07.36.18.36.19-.14.19-.37-.06-.36-.19-.36m0,.82c-.18,0-.29-.16-.3-.45s.13-.47.31-.47.3.17.3.45-.12.47-.31.47" transform="translate(0 0)"/><path class="cls-14" d="M52.59,8.44c-.11,0-.18.12-.18.37s.07.36.18.36.18-.14.18-.37-.06-.36-.18-.36m0,.82c-.17,0-.29-.16-.29-.45s.12-.47.31-.47.29.17.29.45-.11.47-.31.47" transform="translate(0 0)"/><polyline class="cls-14" points="53.38 9.24 53.26 9.24 53.26 8.47 53.26 8.47 53.1 8.55 53.08 8.46 53.28 8.35 53.38 8.35 53.38 9.24"/><g class="cls-9"><g class="cls-10"><path class="cls-11" d="M44.82,10.12l0-.12h0l0,.12h0" transform="translate(0 0)"/><path class="cls-12" d="M44.94,10.89h-.12v-.77h0l0-.12h.09v.89" transform="translate(0 0)"/></g></g><path class="cls-12" d="M45.55,10.08c-.1,0-.18.13-.18.37s.07.37.18.37.18-.15.18-.37,0-.37-.18-.37m0,.83c-.17,0-.29-.16-.29-.46s.13-.46.31-.46.29.17.29.45-.11.47-.31.47" transform="translate(0 0)"/><path class="cls-12" d="M46.26,10.08c-.11,0-.19.13-.19.37s.07.37.18.37.19-.15.19-.37-.06-.37-.18-.37m0,.83c-.18,0-.29-.16-.3-.46s.13-.46.31-.46.3.17.3.45-.12.47-.31.47" transform="translate(0 0)"/><polyline class="cls-12" points="47.05 10.89 46.93 10.89 46.93 10.11 46.93 10.11 46.77 10.2 46.75 10.1 46.94 10 47.05 10 47.05 10.89"/><path class="cls-12" d="M51.18,10.08c-.1,0-.18.13-.18.37s.07.37.18.37.18-.15.18-.37,0-.37-.18-.37m0,.83c-.17,0-.29-.16-.29-.46S51,10,51.19,10s.29.17.29.45-.11.47-.31.47" transform="translate(0 0)"/><polyline class="cls-12" points="51.97 10.89 51.86 10.89 51.86 10.11 51.85 10.11 51.7 10.2 51.67 10.1 51.87 10 51.97 10 51.97 10.89"/><path class="cls-12" d="M52.59,10.08c-.11,0-.18.13-.18.37s.07.37.18.37.18-.15.18-.37-.06-.37-.18-.37m0,.83c-.17,0-.29-.16-.3-.46s.13-.46.32-.46.29.17.29.45-.11.47-.31.47" transform="translate(0 0)"/><polyline class="cls-13" points="38.31 12.71 38.14 12.71 38.14 11.56 38.14 11.56 37.91 11.69 37.88 11.55 38.16 11.4 38.31 11.4 38.31 12.71"/><polyline class="cls-13" points="39.35 12.71 39.18 12.71 39.18 11.56 39.17 11.56 38.95 11.69 38.91 11.55 39.2 11.4 39.35 11.4 39.35 12.71"/><g class="cls-9"><g class="cls-10"><path class="cls-13" d="M40.25,11.52c-.15,0-.26.19-.26.54s.1.54.26.54.27-.22.27-.55-.08-.53-.27-.53m0,1.21c-.25,0-.43-.24-.43-.67s.19-.68.45-.68.43.24.44.65a.57.57,0,0,0,0,.13.49.49,0,0,0,0,.12c0,.29-.21.45-.44.45" transform="translate(0 0)"/><path class="cls-11" d="M44.32,11.58l.08-.18h0a1.42,1.42,0,0,1-.08.18h0" transform="translate(0 0)"/><path class="cls-13" d="M44.52,12.71h-.17V11.57h0a1.42,1.42,0,0,0,.08-.18h.12v1.31" transform="translate(0 0)"/></g></g><path class="cls-13" d="M45.43,11.52c-.16,0-.27.19-.27.54s.11.54.27.54.26-.22.26-.55-.08-.53-.26-.53m0,1.21c-.26,0-.43-.24-.44-.67s.19-.68.46-.68.43.24.43.66-.16.69-.45.69" transform="translate(0 0)"/><polyline class="cls-13" points="46.59 12.71 46.42 12.71 46.42 11.56 46.42 11.56 46.19 11.69 46.16 11.55 46.44 11.4 46.59 11.4 46.59 12.71"/><path class="cls-11" d="M49.52,12.44h0l.11-.12a.75.75,0,0,1,.07-.12h0a.75.75,0,0,0-.07.12l-.11.12" transform="translate(0 0)"/><path class="cls-13" d="M49.7,12.71h-.18v-.27l.11-.12a.75.75,0,0,1,.07-.12v.51" transform="translate(0 0)"/><path class="cls-13" d="M50.6,11.52c-.15,0-.27.19-.27.54s.11.54.27.54.27-.22.27-.55-.08-.53-.27-.53m0,1.21c-.26,0-.43-.24-.43-.67s.19-.68.45-.68.43.24.43.66-.16.69-.45.69" transform="translate(0 0)"/><polyline class="cls-13" points="51.77 12.71 51.59 12.71 51.59 11.56 51.59 11.56 51.36 11.69 51.33 11.55 51.61 11.4 51.77 11.4 51.77 12.71"/><polyline class="cls-14" points="39.66 14.07 39.54 14.07 39.54 13.29 39.54 13.29 39.39 13.37 39.36 13.28 39.56 13.18 39.66 13.18 39.66 14.07"/><polyline class="cls-14" points="40.36 14.07 40.25 14.07 40.25 13.29 40.24 13.29 40.09 13.37 40.07 13.28 40.26 13.18 40.36 13.18 40.36 14.07"/><path class="cls-11" d="M41.07,13.4a.54.54,0,0,1-.12-.09h0a.58.58,0,0,0,.12.1h0" transform="translate(0 0)"/><path class="cls-14" d="M41.07,14.07H41v-.76a.54.54,0,0,0,.12.09v.67" transform="translate(0 0)"/><path class="cls-11" d="M40.94,13.3l-.06-.07h0l.06.08h0" transform="translate(0 0)"/><path class="cls-14" d="M40.79,13.38l0-.1.11,0,.06.07-.15.08" transform="translate(0 0)"/><path class="cls-11" d="M41.5,13.55l-.12,0h0l.11,0h0m.36,0h0" transform="translate(0 0)"/><path class="cls-14" d="M41.67,14.09c-.17,0-.29-.17-.29-.46v-.1l.12,0v.08c0,.23.07.36.18.36s.18-.14.18-.37v-.06H42v.07c0,.3-.11.47-.31.47" transform="translate(0 0)"/><path class="cls-11" d="M42.55,13.42h0l.11-.05h0l-.1,0m-.46.12h0l.12,0h0l-.12,0" transform="translate(0 0)"/><path class="cls-14" d="M42.38,14.09c-.18,0-.29-.17-.3-.46,0,0,0-.07,0-.09l.12,0s0,.08,0,.12c0,.23.08.36.18.36s.19-.14.19-.37a1.12,1.12,0,0,0,0-.2l.1,0a.55.55,0,0,1,0,.24c0,.3-.11.47-.31.47" transform="translate(0 0)"/><path class="cls-11" d="M42.9,13.25h0l.09-.06h0l-.11.07" transform="translate(0 0)"/><path class="cls-14" d="M43.09,13.26c-.11,0-.18.13-.18.37s.07.36.18.36.18-.14.18-.37-.06-.36-.18-.36m0,.83c-.17,0-.29-.17-.29-.46a.54.54,0,0,1,.11-.38l.11-.07h.09c.18,0,.29.16.29.45s-.11.47-.31.47" transform="translate(0 0)"/><path class="cls-14" d="M43.79,13.26c-.1,0-.18.13-.18.37s.07.36.18.36.18-.14.18-.37,0-.36-.18-.36m0,.83c-.18,0-.3-.17-.3-.46s.13-.46.31-.46.3.16.3.45-.12.47-.31.47" transform="translate(0 0)"/><polyline class="cls-14" points="44.59 14.07 44.47 14.07 44.47 13.29 44.47 13.29 44.31 13.37 44.29 13.28 44.48 13.18 44.59 13.18 44.59 14.07"/><polyline class="cls-14" points="45.29 14.07 45.17 14.07 45.17 13.29 45.17 13.29 45.02 13.37 44.99 13.28 45.19 13.18 45.29 13.18 45.29 14.07"/><polyline class="cls-14" points="45.99 14.07 45.88 14.07 45.88 13.29 45.87 13.29 45.72 13.37 45.7 13.28 45.89 13.18 45.99 13.18 45.99 14.07"/><path class="cls-14" d="M46.61,13.26c-.11,0-.18.13-.18.37s.07.36.18.36.18-.14.18-.37-.06-.36-.18-.36m0,.83c-.17,0-.29-.17-.29-.46s.12-.46.31-.46.29.16.29.45-.11.47-.31.47" transform="translate(0 0)"/><path class="cls-11" d="M47.4,13.69l-.12,0h0l.12,0h0" transform="translate(0 0)"/><path class="cls-14" d="M47.4,14.07h-.12v-.41l.12,0v.38" transform="translate(0 0)"/><path class="cls-11" d="M48.19,13.52h0l.11-.06h0l-.11.06m-.48.16h0l.12,0h0l-.12,0" transform="translate(0 0)"/><path class="cls-14" d="M48,14.09c-.17,0-.28-.15-.3-.41l.12,0c0,.22.08.34.18.34s.19-.14.19-.37a.34.34,0,0,0,0-.1l.11-.06a.78.78,0,0,1,0,.16c0,.3-.12.47-.31.47" transform="translate(0 0)"/><g class="cls-9"><g class="cls-10"><path class="cls-11" d="M48.52,13.34h0l.22-.15h0l-.23.16" transform="translate(0 0)"/></g></g><path class="cls-14" d="M48.81,14.07h-.12v-.78h0l-.16.09v0l.23-.16h.06v.89" transform="translate(0 0)"/><path class="cls-14" d="M49.42,13.26c-.1,0-.18.13-.18.37s.07.36.18.36.18-.14.18-.37-.05-.36-.18-.36m0,.83c-.17,0-.29-.17-.29-.46s.13-.46.31-.46.29.16.29.45-.11.47-.31.47" transform="translate(0 0)"/><polyline class="cls-14" points="50.21 14.07 50.1 14.07 50.1 13.29 50.09 13.29 49.94 13.37 49.92 13.28 50.11 13.18 50.21 13.18 50.21 14.07"/><path class="cls-14" d="M50.83,13.26c-.11,0-.18.13-.18.37s.07.36.18.36.18-.14.18-.37,0-.36-.18-.36m0,.83c-.17,0-.29-.17-.29-.46s.13-.46.31-.46.29.16.29.45-.11.47-.31.47" transform="translate(0 0)"/><path class="cls-14" d="M39.18,14.61c-.09,0-.16.11-.16.32s.06.32.16.32.16-.13.16-.33-.05-.31-.16-.31m0,.72c-.15,0-.25-.14-.25-.4s.11-.4.27-.4.25.14.25.39-.09.41-.27.41" transform="translate(0 0)"/><polyline class="cls-14" points="39.87 15.31 39.77 15.31 39.77 14.63 39.77 14.63 39.63 14.71 39.61 14.63 39.78 14.54 39.87 14.54 39.87 15.31"/><path class="cls-14" d="M40.41,14.61c-.09,0-.16.11-.16.32s.06.32.16.32.16-.13.16-.33,0-.31-.16-.31m0,.72c-.15,0-.25-.14-.26-.4s.12-.4.27-.4.26.14.26.39-.1.41-.27.41" transform="translate(0 0)"/><polyline class="cls-14" points="41.1 15.31 41 15.31 41 14.63 40.99 14.63 40.86 14.71 40.84 14.63 41.01 14.54 41.1 14.54 41.1 15.31"/><path class="cls-14" d="M41.64,14.61c-.1,0-.16.11-.16.32s.06.32.16.32.15-.13.15-.33,0-.31-.15-.31m0,.72c-.15,0-.26-.14-.26-.4s.11-.4.27-.4.26.14.26.39-.1.41-.27.41" transform="translate(0 0)"/><polyline class="cls-14" points="42.33 15.31 42.23 15.31 42.23 14.63 42.22 14.63 42.09 14.71 42.07 14.63 42.24 14.54 42.33 14.54 42.33 15.31"/><path class="cls-14" d="M42.86,14.61c-.09,0-.15.11-.15.32s.06.32.15.32.16-.13.16-.33-.05-.31-.16-.31m0,.72c-.15,0-.26-.14-.26-.4s.11-.4.27-.4.26.14.26.39-.1.41-.27.41" transform="translate(0 0)"/><polyline class="cls-14" points="45.84 15.38 45.73 15.38 45.73 14.64 45.72 14.64 45.58 14.72 45.56 14.63 45.74 14.54 45.84 14.54 45.84 15.38"/><path class="cls-14" d="M46.42,14.61c-.1,0-.17.12-.17.35s.06.35.17.35.17-.14.17-.35-.05-.35-.17-.35m0,.79c-.16,0-.27-.16-.28-.44s.12-.43.29-.43.28.15.28.42-.1.45-.29.45" transform="translate(0 0)"/><path class="cls-14" d="M47.08,14.61c-.1,0-.17.12-.17.35s.07.35.17.35.17-.14.17-.35,0-.35-.17-.35m0,.79c-.17,0-.28-.16-.28-.44s.12-.43.29-.43.28.15.28.42-.11.45-.29.45" transform="translate(0 0)"/><path class="cls-14" d="M47.75,14.61c-.1,0-.18.12-.18.35s.07.35.18.35.17-.14.17-.35-.06-.35-.17-.35m0,.79c-.17,0-.28-.16-.28-.44s.12-.43.29-.43.28.15.28.42-.1.45-.29.45" transform="translate(0 0)"/><polyline class="cls-14" points="48.49 15.38 48.38 15.38 48.38 14.64 48.38 14.64 48.23 14.72 48.21 14.63 48.4 14.54 48.49 14.54 48.49 15.38"/><polyline class="cls-14" points="49.16 15.38 49.05 15.38 49.05 14.64 49.05 14.64 48.9 14.72 48.88 14.63 49.06 14.54 49.16 14.54 49.16 15.38"/><path class="cls-6" d="M46,22.35a16,16,0,0,0-16.23-5.46l-10.13,6.4s9.89-2.43,19.82,5.55L42,27.75a12.07,12.07,0,0,1,4-5.4" transform="translate(0 0)"/><path class="cls-4" d="M48.48,17.6c-1.8,1.19-3.54,2.51-5.43,3.53a7.61,7.61,0,0,1-5.41.74,4.85,4.85,0,0,1-3.79-4.6c0-.63,0-1.26,0-1.94.11.6.17,1.17.32,1.71.65,2.41,3,3.67,5.67,3.12A13.87,13.87,0,0,0,45,17.78a2.49,2.49,0,0,1,1.28-.29c.71,0,1.43.09,2.15.14Z" transform="translate(0 0)"/><path class="cls-4" d="M48.46,17.63l0-.07,0,0Z" transform="translate(0 0)"/></g></g></svg>